<?xml version="1.0" encoding="UTF-8" standalone="no"?>
<!-- Created with Inkscape (http://www.inkscape.org/) -->

<svg
   xmlns:dc="http://purl.org/dc/elements/1.1/"
   xmlns:cc="http://creativecommons.org/ns#"
   xmlns:rdf="http://www.w3.org/1999/02/22-rdf-syntax-ns#"
   xmlns:svg="http://www.w3.org/2000/svg"
   xmlns="http://www.w3.org/2000/svg"
   xmlns:sodipodi="http://sodipodi.sourceforge.net/DTD/sodipodi-0.dtd"
   xmlns:inkscape="http://www.inkscape.org/namespaces/inkscape"
   width="64px"
   height="64px"
   id="svg2985"
   version="1.1"
   inkscape:version="0.91 r13725"
   sodipodi:docname="and.svg"
   inkscape:export-filename="/home/davi/git/wiRedPanda/app/resources/basic/and.png"
   inkscape:export-xdpi="90"
   inkscape:export-ydpi="90">
  <defs
     id="defs2987">
    <linearGradient
       id="linearGradient3765">
      <stop
         style="stop-color:#0c0000;stop-opacity:1;"
         offset="0"
         id="stop3767" />
      <stop
         style="stop-color:#000000;stop-opacity:0;"
         offset="1"
         id="stop3769" />
    </linearGradient>
    <filter
       id="filter3987"
       inkscape:label="Glow"
       inkscape:menu="Shadows and Glows"
       inkscape:menu-tooltip="Glow of object's own color at the edges"
       color-interpolation-filters="sRGB">
      <feGaussianBlur
         id="feGaussianBlur3989"
         stdDeviation="5"
         result="result91" />
      <feComposite
         id="feComposite3991"
         in2="result91"
         in="SourceGraphic"
         operator="over" />
    </filter>
  </defs>
  <sodipodi:namedview
     id="base"
     pagecolor="#ffffff"
     bordercolor="#666666"
     borderopacity="1.0"
     inkscape:pageopacity="0.0"
     inkscape:pageshadow="2"
     inkscape:zoom="8.0000004"
     inkscape:cx="-3.1522086"
     inkscape:cy="34.7747"
     inkscape:current-layer="layer1"
     showgrid="true"
     inkscape:document-units="px"
     inkscape:grid-bbox="true"
     showguides="true"
     inkscape:guide-bbox="true"
     inkscape:window-width="1920"
     inkscape:window-height="1016"
     inkscape:window-x="0"
     inkscape:window-y="28"
     inkscape:window-maximized="1">
    <sodipodi:guide
       orientation="1,0"
       position="32.003906,43.21875"
       id="guide2993" />
  </sodipodi:namedview>
  <metadata
     id="metadata2990">
    <rdf:RDF>
      <cc:Work
         rdf:about="">
        <dc:format>image/svg+xml</dc:format>
        <dc:type
           rdf:resource="http://purl.org/dc/dcmitype/StillImage" />
        <dc:title />
      </cc:Work>
    </rdf:RDF>
  </metadata>
  <g
     id="layer1"
     inkscape:label="Layer 1"
     inkscape:groupmode="layer">
    <path
       style="fill:#262626;fill-opacity:1;stroke:none"
       d="M 32 10.439453 A 22 17.794409 0 0 0 10 28.234375 A 22 17.794409 0 0 0 10.035156 29.046875 C 10.02548 29.163991 10 29.276787 10 29.396484 L 10 49.279297 C 10 51.617102 11.882898 53.5 14.220703 53.5 L 49.779297 53.5 C 52.117102 53.5 54 51.617102 54 49.279297 L 54 29.396484 C 54 29.24534 53.970426 29.102027 53.955078 28.955078 A 22 17.794409 0 0 0 54 28.234375 A 22 17.794409 0 0 0 32 10.439453 z "
       id="rect3901-8" />
    <path
       style="fill:#fcfcfc;fill-opacity:1;stroke:none"
       d="m 32,13.375977 a 19,15.367897 0 0 0 -19,15.367187 19,15.367897 0 0 0 0.03125,0.703125 C 13.022933,29.547195 13,29.643945 13,29.74707 l 0,17.171875 c 0,2.019013 1.625518,3.644531 3.644531,3.644531 l 30.710938,0 C 49.374482,50.563476 51,48.937958 51,46.918945 L 51,29.74707 c 0,-0.131225 -0.02567,-0.25525 -0.03906,-0.382813 A 19,15.367897 0 0 0 51,28.743164 19,15.367897 0 0 0 32,13.375977 Z"
       id="rect3901-8-1"
       inkscape:connector-curvature="0" />
  </g>
  <g
     inkscape:groupmode="layer"
     id="layer4"
     inkscape:label="Camada" />
</svg>
