<?xml version="1.0" encoding="UTF-8" standalone="no"?>
<!-- Created with Inkscape (http://www.inkscape.org/) -->

<svg
   width="64px"
   height="64px"
   id="svg3852"
   version="1.1"
   inkscape:version="1.2 (dc2aedaf03, 2022-05-15)"
   sodipodi:docname="ic.svg"
   inkscape:export-filename="/home/davi/git/wiRedPanda/app/resources/basic/box.png"
   inkscape:export-xdpi="90"
   inkscape:export-ydpi="90"
   xmlns:inkscape="http://www.inkscape.org/namespaces/inkscape"
   xmlns:sodipodi="http://sodipodi.sourceforge.net/DTD/sodipodi-0.dtd"
   xmlns="http://www.w3.org/2000/svg"
   xmlns:svg="http://www.w3.org/2000/svg"
   xmlns:rdf="http://www.w3.org/1999/02/22-rdf-syntax-ns#"
   xmlns:cc="http://creativecommons.org/ns#"
   xmlns:dc="http://purl.org/dc/elements/1.1/">
  <defs
     id="defs3854">
    <inkscape:perspective
       sodipodi:type="inkscape:persp3d"
       inkscape:vp_x="0 : 32 : 1"
       inkscape:vp_y="0 : 1000 : 0"
       inkscape:vp_z="64 : 32 : 1"
       inkscape:persp3d-origin="32 : 21.333333 : 1"
       id="perspective3837" />
    <clipPath
       clipPathUnits="userSpaceOnUse"
       id="clipPath4200">
      <path
         inkscape:connector-curvature="0"
         d="m 8.9563742,4.3275232 46.0872498,0 c 2.564383,0 4.628851,2.0644675 4.628851,4.628851 l 0,46.0872498 c 0,2.564383 -2.064468,4.628851 -4.628851,4.628851 l -46.0872498,0 c -2.5643835,0 -4.628851,-2.064468 -4.628851,-4.628851 l 0,-46.0872498 c 0,-2.5643835 2.0644675,-4.628851 4.628851,-4.628851 z"
         style="color:#000000;clip-rule:nonzero;display:inline;overflow:visible;visibility:visible;opacity:1;isolation:auto;mix-blend-mode:normal;color-interpolation:sRGB;color-interpolation-filters:linearRGB;solid-color:#000000;solid-opacity:1;fill:#ffffff;fill-opacity:1;fill-rule:nonzero;stroke:#000000;stroke-width:0.94279271;stroke-linecap:round;stroke-linejoin:round;stroke-miterlimit:4;stroke-dasharray:none;stroke-dashoffset:0;stroke-opacity:1;color-rendering:auto;image-rendering:auto;shape-rendering:auto;text-rendering:auto;enable-background:accumulate"
         id="path4202" />
    </clipPath>
  </defs>
  <sodipodi:namedview
     id="base"
     pagecolor="#ffffff"
     bordercolor="#666666"
     borderopacity="1.0"
     inkscape:pageopacity="0.0"
     inkscape:pageshadow="2"
     inkscape:zoom="6.625"
     inkscape:cx="61.509434"
     inkscape:cy="44.754717"
     inkscape:current-layer="layer1"
     showgrid="false"
     inkscape:document-units="px"
     inkscape:grid-bbox="true"
     showguides="true"
     inkscape:guide-bbox="true"
     inkscape:window-width="1350"
     inkscape:window-height="1230"
     inkscape:window-x="1338"
     inkscape:window-y="851"
     inkscape:window-maximized="0"
     inkscape:showpageshadow="2"
     inkscape:pagecheckerboard="0"
     inkscape:deskcolor="#d1d1d1">
    <inkscape:grid
       type="xygrid"
       id="grid3864" />
  </sodipodi:namedview>
  <metadata
     id="metadata3857">
    <rdf:RDF>
      <cc:Work
         rdf:about="">
        <dc:format>image/svg+xml</dc:format>
        <dc:type
           rdf:resource="http://purl.org/dc/dcmitype/StillImage" />
        <dc:title />
      </cc:Work>
    </rdf:RDF>
  </metadata>
  <g
     id="layer1"
     inkscape:label="Layer 1"
     inkscape:groupmode="layer">
    <path
       style="opacity:0.98;fill:#4e4e4e;fill-opacity:1;stroke:none;stroke-width:2.15649;stroke-linecap:round;stroke-linejoin:round;stroke-miterlimit:4;stroke-dasharray:none;stroke-opacity:1"
       d="M 6.7045463,7.1098883 H 57.295459 c 0.66732,0 1.20454,0.661444 1.20454,1.483058 V 59.01694 c 0,0.82162 -0.53722,1.48306 -1.20454,1.48306 H 6.7045463 c -0.667318,0 -1.204546,-0.66144 -1.204546,-1.48306 V 8.5929463 c 0,-0.821614 0.537228,-1.483058 1.204546,-1.483058 z"
       id="rect4704"
       inkscape:connector-curvature="0" />
    <path
       style="opacity:0.98;fill:#7e7e7e;fill-opacity:1;stroke:none;stroke-width:2.15649;stroke-linecap:round;stroke-linejoin:round;stroke-miterlimit:4;stroke-dasharray:none;stroke-opacity:1"
       d="m 6.7039353,3.5000013 c -0.667318,0 -1.203932,0.661954 -1.203932,1.483568 V 55.40795 c 0,0.82161 0.536614,1.48115 1.203932,1.48115 H 57.296069 c 0.66732,0 1.20393,-0.65954 1.20393,-1.48115 V 4.9835693 c 0,-0.821614 -0.53661,-1.483568 -1.20393,-1.483568 H 43.521738 v 2.478261 H 20.478264 v -2.478261 z"
       id="path4228"
       inkscape:connector-curvature="0" />
    <path
       style="opacity:1;fill:#4e4e4e;fill-opacity:1;stroke:none;stroke-width:2;stroke-linecap:round;stroke-linejoin:round;stroke-miterlimit:4;stroke-dasharray:none;stroke-opacity:1"
       d="M 32.000002,17.476214 A 11.521739,12.391304 0 0 1 20.478263,5.0849103 H 43.521739 A 11.521739,12.391304 0 0 1 32.000002,17.476214 Z"
       id="path4727"
       inkscape:connector-curvature="0" />
    <path
       style="opacity:1;fill:#4e4e4e;fill-opacity:1;stroke:none;stroke-width:2;stroke-linecap:round;stroke-linejoin:round;stroke-miterlimit:4;stroke-dasharray:none;stroke-opacity:1"
       d="m 18.177689,29.867263 a 6.195652,5.7608695 0 0 1 -6.195652,-5.76087 6.195652,5.7608695 0 0 1 6.195652,-5.76087 6.195652,5.7608695 0 0 1 6.195652,5.76087 6.195652,5.7608695 0 0 1 -6.195652,5.76087 z"
       id="path4735"
       inkscape:connector-curvature="0" />
  </g>
</svg>
