<?xml version="1.0" encoding="UTF-8" standalone="no"?>
<svg width="64px" height="64px" version="1.1" xmlns="http://www.w3.org/2000/svg">
  <g>
    <rect style="display:inline;fill:#4e4e4e;fill-opacity:1;stroke:none" width="5.4619951" height="10.085155" x="29.316441" y="26.346565"/>
    <path style="display:inline;fill:#758eff;fill-opacity:1;stroke:none" d="m 24.513096,4.644156 -2.695029,1.1194736 -1.285322,0.4975438 c -0.77646,0.3148244 -1.144064,1.2137176 -0.829239,1.9901751 l 9.163098,22.5967805 -1.741403,4.312046 -1.03655,-0.41462 c -0.511768,-0.207502 -1.011191,-0.18414 -1.119473,0.08292 l -3.980351,9.867952 c -0.37993,-0.221574 -0.782904,-0.451841 -1.202397,-0.62193 -4.753463,-1.927349 -10.1795512,0.387823 -12.1068992,5.141286 -1.92735,4.753463 0.387824,10.17955 5.1412862,12.106899 4.507943,1.8278 9.574686,-0.174168 11.733741,-4.436432 0.01896,-0.0225 0.07173,-0.01384 0.08292,-0.04146 l 0.248772,-0.663392 7.131461,-17.496956 7.089999,17.496956 0.248772,0.663392 c 0.0112,0.02762 0.06396,0.01896 0.08292,0.04146 2.159055,4.262264 7.26726,6.264232 11.775203,4.436432 4.753462,-1.927349 7.027173,-7.353436 5.099824,-12.106899 -1.927348,-4.753463 -7.353436,-7.068635 -12.106899,-5.141286 -0.419493,0.170089 -0.781006,0.400356 -1.160936,0.62193 l -4.021812,-9.867952 c -0.108283,-0.267064 -0.607705,-0.290426 -1.119474,-0.08292 l -1.036549,0.41462 -1.741404,-4.312046 9.163099,-22.5967805 C 44.605286,7.474891 44.279144,6.5759978 43.502684,6.2611734 L 42.175901,5.7636296 39.480872,4.644156 38.900404,6.0953254 32.017715,23.1362 25.093564,6.0953254 Z m 7.504619,25.499119 c 1.099143,0 1.990175,0.891032 1.990175,1.990175 0,1.099144 -0.891032,1.990175 -1.990175,1.990175 -1.099144,0 -1.990175,-0.891031 -1.990175,-1.990175 0,-1.099143 0.891031,-1.990175 1.990175,-1.990175 z m -15.755554,19.23836 c 0.430824,-0.0064 0.860905,0.07669 1.285322,0.248772 0.442372,0.179365 0.807625,0.423986 1.119473,0.746316 0.220756,0.22867 0.391603,0.509812 0.539006,0.787777 0.138478,0.261135 0.265725,0.54062 0.331696,0.82924 0.0042,0.0186 -0.0039,0.02278 0,0.04146 0.01696,0.08688 0.03147,0.201927 0.04146,0.290234 0.0077,0.06281 -0.004,0.102487 0,0.165848 0.01022,0.158405 0.01329,0.337345 0,0.497544 -0.01327,0.160198 -0.0036,0.337892 -0.04146,0.497544 -0.0385,0.161253 -0.10165,0.29774 -0.165848,0.456081 -0.0853,0.210387 -0.205953,0.401687 -0.331696,0.580468 -0.110163,0.156631 -0.202759,0.319843 -0.331696,0.456082 -0.911811,0.957597 -2.34899,1.314743 -3.648654,0.787778 -1.697666,-0.68834 -2.512667,-2.614381 -1.824328,-4.312047 0.516254,-1.273247 1.734252,-2.053789 3.026725,-2.073099 z m 31.511107,0 c 1.292473,0.01931 2.510471,0.799852 3.026725,2.073099 0.688339,1.697666 -0.126661,3.623707 -1.824327,4.312047 -1.299664,0.526965 -2.736844,0.169819 -3.648655,-0.787778 -0.128937,-0.136239 -0.262995,-0.299451 -0.373158,-0.456082 -0.125743,-0.178781 -0.246397,-0.370081 -0.331695,-0.580468 -0.0642,-0.158341 -0.08588,-0.294828 -0.124386,-0.456081 -0.03784,-0.159652 -0.06966,-0.337346 -0.08292,-0.497544 -0.01329,-0.160199 -0.01022,-0.339139 0,-0.497544 0.004,-0.06336 -0.0077,-0.103038 0,-0.165848 0.01,-0.08831 0.0245,-0.203356 0.04146,-0.290234 0.0039,-0.01868 -0.0042,-0.02286 0,-0.04146 0.06597,-0.28862 0.193218,-0.568105 0.331696,-0.82924 0.147402,-0.277965 0.31825,-0.559107 0.539005,-0.787777 0.311849,-0.32233 0.677102,-0.566951 1.119474,-0.746316 0.424417,-0.172085 0.895959,-0.255208 1.326783,-0.248772 z"/>
  </g>
</svg>
