<?xml version="1.0" encoding="UTF-8" standalone="no"?>
<svg width="64px" height="64px" version="1.1" xmlns="http://www.w3.org/2000/svg">
  <g>
    <rect style="fill:#f9fdfd;fill-opacity:1;stroke:#623259;stroke-width:1.153;stroke-linecap:round;stroke-linejoin:round;stroke-miterlimit:4;stroke-opacity:1;stroke-dasharray:none" width="38.84655" height="50.84655" x="12.576725" y="6.576725" rx="0.21904609" ry="1.5953909"/>
    <path style="fill:#758eff;fill-opacity:1;stroke:none" d="M 10.03125,0.5 C 9.902069,0.5 9.8125,1.221269 9.8125,2.125 l 0,6.375 -7.84375,0 C 1.56506,8.5 1.25,8.742056 1.25,9.03125 l 0,6.9375 C 1.25,16.257944 1.56506,16.5 1.96875,16.5 l 7.84375,0 0,7.375 c 0,0.903731 0.08957,1.625 0.21875,1.625 l 7.5625,0 c 0.129181,0 0.21875,-0.721269 0.21875,-1.625 l 0,-7.375 7.71875,0 c 0.40369,0 0.71875,-0.242056 0.71875,-0.53125 l 0,-6.9375 C 26.25,8.742056 25.93494,8.5 25.53125,8.5 l -7.71875,0 0,-6.375 C 17.8125,1.221269 17.72293,0.5 17.59375,0.5 l -7.5625,0 z"/>
  </g>
</svg>
