<?xml version="1.0" encoding="UTF-8" standalone="no"?>
<svg width="64px" height="64px" version="1.1" xmlns="http://www.w3.org/2000/svg">
  <g>
    <rect style="fill:#ffffff;stroke:#4e4e4e;stroke-width:2.5;stroke-linecap:round;stroke-linejoin:round;stroke-miterlimit:4;stroke-opacity:1;stroke-dasharray:none;fill-opacity:1" width="38.079033" height="49.841938" x="12.960485" y="11.197577" rx="0.21471824" ry="1.5638696"/>
    <path style="fill:#758eff;fill-opacity:1;stroke:none" d="M 32 0.5625 C 28.686292 0.5625 26 3.2487915 26 6.5625 C 26 7.6808766 26.310929 8.7287069 26.84375 9.625 L 19.5 9.625 L 19.5 17.6875 L 44.5 17.6875 L 44.5 9.625 L 37.15625 9.625 C 37.689071 8.7287069 38 7.6808766 38 6.5625 C 38 3.2487915 35.313708 0.5625 32 0.5625 z M 32 4.0625 C 33.380712 4.0625 34.5 5.1817881 34.5 6.5625 C 34.5 7.9432119 33.380712 9.0625 32 9.0625 C 30.619288 9.0625 29.5 7.9432119 29.5 6.5625 C 29.5 5.1817881 30.619288 4.0625 32 4.0625 z "/>
  </g>
</svg>
