<?xml version="1.0" encoding="UTF-8" standalone="no"?>
<svg width="64" height="64" version="1.1" viewBox="0 0 64 64" xmlns="http://www.w3.org/2000/svg">
  <g>
    <rect style="opacity:1;fill:#758eff;fill-opacity:1;stroke:#758eff;stroke-width:3.56879997;stroke-linecap:round;stroke-linejoin:round;stroke-miterlimit:4;stroke-dasharray:none;stroke-opacity:1" width="44.431202" height="44.431202" x="9.7844" y="9.7843981"/>
    <path style="opacity:1;fill:#623259;fill-opacity:1;stroke:none;stroke-width:3;stroke-linecap:round;stroke-linejoin:round;stroke-miterlimit:4;stroke-dasharray:none;stroke-opacity:1" d="m 12.509833,31 c -0.764473,0 -1.381038,0.487433 -1.381038,1.091797 l 0,6.044922 0,16.771484 0,1.091797 1.381038,0 38.980335,0 1.381038,0 0,-1.091797 0,-16.771484 0,-6.044922 C 52.871206,31.487433 52.254641,31 51.490168,31 l -38.980335,0 z"/>
    <path style="opacity:1;fill:#623259;fill-opacity:1;stroke:none;stroke-width:3;stroke-linecap:round;stroke-linejoin:round;stroke-miterlimit:4;stroke-dasharray:none;stroke-opacity:1" d="m 15.5,9.136719 0,0.802734 0,12.31836 0,4.441406 C 15.5,27.143152 15.987433,27.5 16.591797,27.5 l 30.816406,0 C 48.012567,27.5 48.5,27.143152 48.5,26.699219 l 0,-4.441406 0,-12.31836 0,-0.802734 -1.091797,0 -30.816406,0 -1.091797,0 z m 21.492188,1.84375 7.015624,0 0,14.300781 -7.015624,0 0,-14.300781 z"/>
    <path style="opacity:1;fill:#d7d7d7;fill-opacity:1;stroke:none;stroke-width:3;stroke-linecap:round;stroke-linejoin:round;stroke-miterlimit:4;stroke-dasharray:none;stroke-opacity:1" d="m 15.5,8 0,0.8027344 0,12.3183596 0,4.441406 c 0,0.443933 0.487433,0.800781 1.091797,0.800781 l 30.816406,0 C 48.012567,26.363281 48.5,26.006433 48.5,25.5625 l 0,-4.441406 0,-12.3183596 L 48.5,8 47.408203,8 16.591797,8 15.5,8 Z m 21.492188,1.84375 7.015624,0 0,14.300781 -7.015624,0 0,-14.300781 z"/>
  </g>
</svg>
