<?xml version="1.0" encoding="UTF-8" standalone="no"?>
<svg width="64" height="64" version="1.1" viewBox="0 0 64 64" xmlns="http://www.w3.org/2000/svg">
  <g>
    <path style="color:#000000;clip-rule:nonzero;display:inline;overflow:visible;visibility:visible;opacity:1;isolation:auto;mix-blend-mode:normal;color-interpolation:sRGB;color-interpolation-filters:linearRGB;solid-color:#000000;solid-opacity:1;fill:#758eff;fill-opacity:1;fill-rule:nonzero;stroke:#758eff;stroke-width:1.5;stroke-linecap:round;stroke-linejoin:round;stroke-miterlimit:4;stroke-dasharray:none;stroke-dashoffset:0;stroke-opacity:1;color-rendering:auto;image-rendering:auto;shape-rendering:auto;text-rendering:auto;enable-background:accumulate" d="m 9.2386504,9.2386506 0,11.4812484 4.3932686,0 0,-7.087979 7.08798,0 0,-4.3932694 -11.4812486,0 z m 34.0414496,0 0,4.3932694 7.081596,0 0,7.087979 4.399653,0 0,-11.4812484 -11.481249,0 z M 9.2386504,43.273718 l 0,11.487632 11.4812486,0 0,-4.399653 -7.08798,0 0,-7.087979 -4.3932686,0 z m 41.1230456,0 0,7.087979 -7.081596,0 0,4.399653 11.481249,0 0,-11.487632 -4.399653,0 z"/>
    <path style="fill:#758eff;fill-opacity:1;fill-rule:evenodd;stroke:#758eff;stroke-width:3.77003264;stroke-linecap:round;stroke-linejoin:miter;stroke-miterlimit:4;stroke-dasharray:none;stroke-opacity:1" d="m 21.411864,32 21.176272,0"/>
    <path style="fill:#758eff;fill-opacity:1;fill-rule:evenodd;stroke:#758eff;stroke-width:3.77003264;stroke-linecap:round;stroke-linejoin:miter;stroke-miterlimit:4;stroke-dasharray:none;stroke-opacity:1" d="M 42.577699,21.411863 V 42.588136"/>
    <path style="fill:#758eff;fill-opacity:1;fill-rule:evenodd;stroke:#758eff;stroke-width:3.77003264;stroke-linecap:round;stroke-linejoin:miter;stroke-miterlimit:4;stroke-dasharray:none;stroke-opacity:1" d="M 21.410233,21.411863 V 42.588136"/>
  </g>
</svg>
