<svg xmlns="http://www.w3.org/2000/svg" viewBox="0 0 50 30" width="1000" height="600">
  <path d="M0,0v30h50v-30z" fill="#012169"/>
  <path d="M0,0 50,30M50,0 0,30" stroke="#fff" stroke-width="6"/>
  <!-- St Patrick saltire (red), counterchanged: the clip is baked into geometry because Qt's QSvgRenderer ignores clip-path -->
  <path d="M28.8873,15L50,27.6676L50,30L25,15L28.8873,15ZM21.1127,15L0,2.3324L0,0L25,15L21.1127,15ZM25,17.3324L3.8873,30L0,30L25,15L25,17.3324ZM25,12.6676L46.1127,0L50,0L25,15L25,12.6676Z" fill="#C8102E"/>
  <path d="M-1 11h22v-12h8v12h22v8h-22v12h-8v-12h-22z" fill="#C8102E" stroke="#FFF" stroke-width="2"/>
</svg>
