<svg xmlns="http://www.w3.org/2000/svg" xmlns:xlink="http://www.w3.org/1999/xlink" width="900" height="600" viewBox="0 0 10800 7200" fill="#ee1c25">
  <title>Flag of Slovakia</title>
  <defs>
    <path id="s" d="m4678 1746c0 0 56 561 56 1683-8 1146-865 1726-1494 2031-629-305-1486-885-1494-2031 0-1122 56-1683 56-1683z"/>
  </defs>
  <g transform="scale(1200)">
    <path fill="#fff" d="m0 0h9v6H0z"/>
    <path fill="#0b4ea2" d="m0 2h9v4H0z"/>
    <path d="m0 4h9v2H0z"/>
  </g>
  <use xlink:href="#s"/>
  <path fill="#fff" d="m3113 4800V3397c-475 0-610 42-752 85a2323 2323 0 0 0 0-431c142 43 277 85 752 85v-390c-150 0-357 6-595 87a2323 2323 0 0 0 0-432c238 80 445 86 595 86 0-113-35-356-79-557a2323 2323 0 0 0 412 0c-44 201-79 444-79 557 150 0 357-6 595-86a2323 2323 0 0 0 0 432c-238-81-445-87-595-87v390c475 0 610-42 752-85a2323 2323 0 0 0 0 431c-142-43-277-85-752-85v1403z"/>
  <!-- blue hills clipped to the shield: clip baked into geometry because Qt's QSvgRenderer ignores clip-path -->
  <path fill="#0b4ea2" d="M2063,4504L2131,4381L2213,4281L2306,4212L2405,4175L2507,4172L2606,4204L2697,4267L2782,4362L2874,4191L2983,4061L3045,4013L3109,3978L3172,3958L3238,3951L3305,3957L3368,3977L3432,4011L3494,4058L3604,4187L3698,4362L3783,4267L3874,4204L3973,4172L4075,4175L4174,4212L4267,4281L4349,4381L4417,4504L4315,4647L4206,4775L4090,4893L3936,5027L3778,5147L3617,5254L3240,5460L2863,5254L2702,5147L2544,5027L2390,4893L2274,4775L2165,4647Z"/>
  <use xlink:href="#s" fill="none" stroke="#fff" stroke-width="108"/>
</svg>
