<?xml version="1.0" encoding="UTF-8" standalone="no"?>
<!-- Created with Inkscape (http://www.inkscape.org/) -->

<svg
   xmlns:dc="http://purl.org/dc/elements/1.1/"
   xmlns:cc="http://creativecommons.org/ns#"
   xmlns:rdf="http://www.w3.org/1999/02/22-rdf-syntax-ns#"
   xmlns:svg="http://www.w3.org/2000/svg"
   xmlns="http://www.w3.org/2000/svg"
   xmlns:sodipodi="http://sodipodi.sourceforge.net/DTD/sodipodi-0.dtd"
   xmlns:inkscape="http://www.inkscape.org/namespaces/inkscape"
   width="64px"
   height="64px"
   id="svg2985"
   version="1.1"
   inkscape:version="0.48.5 r10040"
   sodipodi:docname="button off.svg">
  <defs
     id="defs2987">
    <filter
       color-interpolation-filters="sRGB"
       inkscape:collect="always"
       id="filter3803"
       x="-0.14888985"
       width="1.2977797"
       y="-0.16382276"
       height="1.3276455">
      <feGaussianBlur
         inkscape:collect="always"
         stdDeviation="2.0453032"
         id="feGaussianBlur3805" />
    </filter>
    <filter
       inkscape:collect="always"
       id="filter3806">
      <feGaussianBlur
         inkscape:collect="always"
         stdDeviation="0.50492194"
         id="feGaussianBlur3808" />
    </filter>
  </defs>
  <sodipodi:namedview
     id="base"
     pagecolor="#ffffff"
     bordercolor="#666666"
     borderopacity="1.0"
     inkscape:pageopacity="0.0"
     inkscape:pageshadow="2"
     inkscape:zoom="5.6568545"
     inkscape:cx="11.111143"
     inkscape:cy="29.118363"
     inkscape:current-layer="layer1"
     showgrid="true"
     inkscape:document-units="px"
     inkscape:grid-bbox="true"
     showguides="true"
     inkscape:guide-bbox="true"
     inkscape:window-width="1440"
     inkscape:window-height="834"
     inkscape:window-x="0"
     inkscape:window-y="27"
     inkscape:window-maximized="1">
    <sodipodi:guide
       orientation="1,0"
       position="32.003906,43.21875"
       id="guide2993" />
  </sodipodi:namedview>
  <metadata
     id="metadata2990">
    <rdf:RDF>
      <cc:Work
         rdf:about="">
        <dc:format>image/svg+xml</dc:format>
        <dc:type
           rdf:resource="http://purl.org/dc/dcmitype/StillImage" />
        <dc:title />
      </cc:Work>
    </rdf:RDF>
  </metadata>
  <g
     id="layer1"
     inkscape:label="Layer 1"
     inkscape:groupmode="layer">
    <path
       sodipodi:type="arc"
       style="opacity:0.80408164;fill:#060606;fill-opacity:1;stroke:none;filter:url(#filter3806)"
       id="path3765-5"
       sodipodi:cx="31.952387"
       sodipodi:cy="49.018173"
       sodipodi:rx="16.484426"
       sodipodi:ry="14.981825"
       d="m 48.436813,49.018173 a 16.484426,14.981825 0 1 1 -32.968853,0 16.484426,14.981825 0 1 1 32.968853,0 z"
       transform="matrix(1.5227551,0,0,1.6484847,-16.651754,-43.500672)" />
    <path
       sodipodi:type="arc"
       style="fill:#a59290;fill-opacity:1;stroke:none"
       id="path3765"
       sodipodi:cx="31.952387"
       sodipodi:cy="49.018173"
       sodipodi:rx="16.484426"
       sodipodi:ry="14.981825"
       d="m 48.436813,49.018173 a 16.484426,14.981825 0 1 1 -32.968853,0 16.484426,14.981825 0 1 1 32.968853,0 z"
       transform="matrix(1.6075779,0,0,1.6076813,-19.365951,-41.8916)" />
    <path
       sodipodi:type="arc"
       style="fill:#e1dada;fill-opacity:1;stroke:none"
       id="path3765-1"
       sodipodi:cx="31.952387"
       sodipodi:cy="49.018173"
       sodipodi:rx="16.484426"
       sodipodi:ry="14.981825"
       d="m 48.436813,49.018173 a 16.484426,14.981825 0 1 1 -32.968853,0 16.484426,14.981825 0 1 1 32.968853,0 z"
       transform="matrix(1.6075779,0,0,1.6076813,-19.365951,-43.891599)" />
    <path
       sodipodi:type="arc"
       style="fill:#881c0c;fill-opacity:1;stroke:none"
       id="path3765-1-8"
       sodipodi:cx="31.952387"
       sodipodi:cy="49.018173"
       sodipodi:rx="16.484426"
       sodipodi:ry="14.981825"
       d="m 48.436813,49.018173 a 16.484426,14.981825 0 1 1 -32.968853,0 16.484426,14.981825 0 1 1 32.968853,0 z"
       transform="matrix(1.4559196,0,0,1.4560133,-14.520107,-37.184847)" />
    <rect
       style="fill:#881c0c;fill-opacity:1;stroke:none"
       id="rect3825"
       width="47.9375"
       height="14.109375"
       x="8.03125"
       y="21.137501"
       rx="3.0347571"
       ry="0" />
    <path
       sodipodi:type="arc"
       style="fill:#bd2812;fill-opacity:1;stroke:none"
       id="path3765-1-8-4-0"
       sodipodi:cx="31.952387"
       sodipodi:cy="49.018173"
       sodipodi:rx="16.484426"
       sodipodi:ry="14.981825"
       d="m 48.436813,49.018173 a 16.484426,14.981825 0 1 1 -32.968853,0 16.484426,14.981825 0 1 1 32.968853,0 z"
       transform="matrix(1.4569906,0,0,1.4560133,-14.556673,-49.184848)" />
    <path
       sodipodi:type="arc"
       style="opacity:0.5;fill:#f65959;fill-opacity:1;stroke:none;filter:url(#filter3803)"
       id="path3765-0"
       sodipodi:cx="31.952387"
       sodipodi:cy="49.018173"
       sodipodi:rx="16.484426"
       sodipodi:ry="14.981825"
       d="m 48.436813,49.018173 a 16.484426,14.981825 0 1 1 -32.968853,0 16.484426,14.981825 0 1 1 32.968853,0 z"
       transform="matrix(1.3358788,0,0,1.1552052,-10.707855,-31.75956)" />
  </g>
</svg>
