<?xml version="1.0" encoding="UTF-8"?>
<svg xmlns="http://www.w3.org/2000/svg" xmlns:xlink="http://www.w3.org/1999/xlink" width="512pt" height="512pt" viewBox="0 0 512 512" version="1.1">
<g id="surface1">
<path style=" stroke:none;fill-rule:nonzero;fill:rgb(0%,0%,0%);fill-opacity:1;" d="M 501.039062 398.914062 C 491.851562 416.800781 480.972656 433.257812 468.371094 448.394531 C 451.195312 469.027344 437.132812 483.308594 426.292969 491.238281 C 409.496094 504.257812 391.492188 510.921875 372.21875 511.304688 C 358.375 511.304688 341.6875 507.984375 322.261719 501.257812 C 302.769531 494.558594 284.859375 491.238281 268.484375 491.238281 C 251.308594 491.238281 232.886719 494.558594 213.183594 501.257812 C 193.445312 507.984375 177.550781 511.496094 165.394531 511.84375 C 146.910156 512.503906 128.484375 505.648438 110.09375 491.238281 C 98.351562 482.613281 83.671875 467.828125 66.085938 446.878906 C 47.210938 424.507812 31.699219 398.566406 19.539062 368.992188 C 6.527344 337.046875 0 306.113281 0 276.164062 C 0 241.863281 8.796875 212.273438 26.417969 187.480469 C 40.269531 167.566406 58.695312 151.855469 81.757812 140.320312 C 104.816406 128.792969 129.734375 122.910156 156.566406 122.535156 C 171.246094 122.535156 190.5 126.363281 214.429688 133.882812 C 238.289062 141.429688 253.609375 145.253906 260.324219 145.253906 C 265.347656 145.253906 282.367188 140.777344 311.214844 131.863281 C 338.5 123.585938 361.527344 120.164062 380.390625 121.515625 C 431.507812 124.988281 469.910156 141.964844 495.449219 172.550781 C 449.730469 195.886719 427.121094 228.574219 427.570312 270.507812 C 427.980469 303.167969 442.046875 330.347656 469.683594 351.929688 C 482.210938 361.945312 496.203125 369.6875 511.761719 375.183594 C 508.386719 383.429688 504.824219 391.332031 501.039062 398.914062 Z M 383.804688 10.242188 C 383.804688 35.839844 372.703125 59.742188 350.574219 81.867188 C 323.871094 108.167969 291.578125 123.367188 256.554688 120.96875 C 256.109375 117.898438 255.847656 114.664062 255.847656 111.269531 C 255.847656 86.695312 268.546875 60.390625 291.09375 38.886719 C 302.355469 27.996094 316.675781 18.945312 334.035156 11.722656 C 351.363281 4.609375 367.75 0.671875 383.167969 0 C 383.617188 3.421875 383.804688 6.847656 383.804688 10.238281 Z M 383.804688 10.242188 "/>
</g>
</svg>
