<?xml version="1.0" encoding="UTF-8"?>
<svg xmlns="http://www.w3.org/2000/svg" xmlns:xlink="http://www.w3.org/1999/xlink" width="431pt" height="511pt" viewBox="0 0 431 511" version="1.1">
<g id="surface1">
<path style=" stroke:none;fill-rule:nonzero;fill:rgb(0%,0%,0%);fill-opacity:1;" d="M 421.96875 398.289062 C 414.230469 416.148438 405.070312 432.582031 394.457031 447.695312 C 379.992188 468.292969 368.148438 482.554688 359.019531 490.472656 C 344.871094 503.46875 329.710938 510.125 313.476562 510.503906 C 301.820312 510.503906 287.765625 507.191406 271.40625 500.472656 C 254.988281 493.785156 239.90625 490.472656 226.113281 490.472656 C 211.648438 490.472656 196.132812 493.785156 179.539062 500.472656 C 162.917969 507.191406 149.53125 510.695312 139.292969 511.042969 C 123.726562 511.703125 108.207031 504.859375 92.71875 490.472656 C 82.832031 481.859375 70.46875 467.097656 55.65625 446.179688 C 39.761719 423.84375 26.695312 397.945312 16.457031 368.414062 C 5.496094 336.519531 0 305.636719 0 275.734375 C 0 241.484375 7.410156 211.941406 22.25 187.1875 C 33.914062 167.304688 49.433594 151.617188 68.855469 140.101562 C 88.273438 128.589844 109.261719 122.71875 131.859375 122.34375 C 144.222656 122.34375 160.4375 126.164062 180.589844 133.671875 C 200.683594 141.207031 213.585938 145.027344 219.242188 145.027344 C 223.472656 145.027344 237.804688 140.558594 262.101562 131.65625 C 285.082031 123.394531 304.472656 119.976562 320.359375 121.324219 C 363.410156 124.792969 395.753906 141.742188 417.261719 172.28125 C 378.757812 195.582031 359.714844 228.21875 360.09375 270.085938 C 360.441406 302.695312 372.285156 329.832031 395.5625 351.378906 C 406.113281 361.378906 417.894531 369.109375 431 374.597656 C 428.15625 382.832031 425.15625 390.71875 421.96875 398.289062 Z M 323.234375 10.226562 C 323.234375 35.785156 313.886719 59.648438 295.25 81.738281 C 272.761719 108 245.5625 123.175781 216.066406 120.78125 C 215.691406 117.714844 215.472656 114.484375 215.472656 111.09375 C 215.472656 86.558594 226.167969 60.296875 245.15625 38.824219 C 254.640625 27.953125 266.699219 18.914062 281.320312 11.703125 C 295.914062 4.601562 309.714844 0.671875 322.699219 0 C 323.078125 3.417969 323.234375 6.835938 323.234375 10.222656 Z M 323.234375 10.226562 "/>
</g>
</svg>
