<svg version="1.1" id="Layer_1" xmlns="http://www.w3.org/2000/svg" xmlns:xlink="http://www.w3.org/1999/xlink" x="0px" y="0px"
	 width="512px" height="548.563px" viewBox="0 0 512 548.563" enable-background="new 0 0 512 548.563" xml:space="preserve">
<path d="M438.845,0c30.299,0,54.862,24.563,54.862,54.856c0,30.298-24.563,54.856-54.862,54.856
	c-30.292,0-54.856-24.559-54.856-54.856C383.988,24.563,408.553,0,438.845,0z M420.574,438.851
	c30.299,0,54.862,24.563,54.862,54.856s-24.563,54.856-54.862,54.856c-30.304,0-54.855-24.563-54.855-54.856
	S390.271,438.851,420.574,438.851z M54.856,219.426c30.298,0,54.856,24.563,54.856,54.855c0,30.293-24.559,54.856-54.856,54.856
	C24.563,329.138,0,304.574,0,274.281C0,243.989,24.563,219.426,54.856,219.426z M137.141,274.281
	c0-34.184-20.836-63.495-50.509-75.923C117.528,114.591,198.07,54.856,292.569,54.856c22.466,0,44.142,3.378,64.555,9.654
	c4.782,40.894,39.541,72.63,81.721,72.63c7.811,0,15.344-1.082,22.494-3.106C492.963,172.058,512,220.948,512,274.281
	c0,55.826-20.864,106.804-55.194,145.532c-10.94-5.368-23.238-8.391-36.231-8.391c-43.849,0-79.668,34.273-82.148,77.479
	c-14.797,3.158-30.135,4.805-45.856,4.805c-94.499,0-175.041-59.729-205.938-143.502
	C116.305,337.777,137.141,308.466,137.141,274.281z M292.569,146.281c-70.691,0-128,57.31-128,128
	c0,70.691,57.309,128.006,128,128.006c70.69,0,128.005-57.314,128.005-128.006C420.574,203.591,363.26,146.281,292.569,146.281z"/>
</svg>
