<?xml version="1.0" encoding="UTF-8" standalone="no"?>
<svg width="64" height="64" version="1.1" viewBox="0 0 64 64" xmlns="http://www.w3.org/2000/svg">
  <g style="display:inline">
    <g transform="matrix(0.06656599,0,0,0.06656599,8.1028103,21.352172)" style="fill:none;stroke:#00979c;stroke-width:60;stroke-opacity:1">
      <path d="m 174,30 a 145.54455,140 0 0 0 0,280 C 364,320 344,30 544,30 a 145.54455,140 0 0 1 0,280 C 354,320 374,30 174,30" style="stroke:#00979c;stroke-opacity:1"/>
    </g>
    <g font-size="167" transform="matrix(0.06656599,0,0,0.06656599,8.1028103,22.017822)" style="font-size:167px;font-family:sans-serif;text-anchor:middle;fill:#00979c;stroke:#00979c;stroke-width:20;stroke-opacity:1">
      <g style="stroke:#00979c;stroke-opacity:1">
        <path d="M 528.06885,194.67432 V 161.89404 H 495.5332 v -13.69922 h 32.53565 v -32.53564 h 13.8623 v 32.53564 h 32.53565 v 13.69922 h -32.53565 v 32.78028 z" style="stroke:#00979c;stroke-opacity:1"/>
      </g>
      <text x="181" y="218" dy="0" style="stroke:#00979c;stroke-opacity:1"><ndash/>

</text>
    </g>
    <g transform="matrix(0.06656599,0,0,0.06656599,8.1028103,21.352172)" style="font-size:40px;font-family:Arial;text-anchor:middle;fill:#00979c;fill-opacity:1;stroke:#00979c;stroke-opacity:1" font-size="40">
      <g style="fill:#00979c;fill-opacity:1;stroke:#00979c;stroke-opacity:1">
        <path d="M 681.55078,29.285156 V 15.730469 h -5.15625 v -2.363281 h 13.00781 v 2.363281 h -5.19531 v 13.554687 z m 9.62891,0 V 13.367188 h 3.90625 l 4.02343,12.714843 3.88672,-12.714843 h 3.82813 v 15.917968 h -2.42188 V 15.925781 l -4.10156,13.359375 h -2.40234 l -4.27735,-13.554687 v 13.554687 z" style="fill:#00979c;fill-opacity:1;stroke:#00979c;stroke-opacity:1"/>
      </g>
    </g>
    <g font-size="167" transform="matrix(0.06656599,0,0,0.06656599,-16.246661,21.387295)" style="font-size:167px;font-family:sans-serif;text-anchor:middle;fill:#00979c;stroke:#00979c;stroke-width:20;stroke-opacity:1">
      <g transform="scale(1.5645974,0.63914206)" style="font-size:197.219px;stroke:#00979c;stroke-width:23.619;stroke-opacity:1">
        <path d="m 321.41756,266.30877 v -17.43 h 53.25297 v 17.43 z" style="font-size:197.219px;stroke:#00979c;stroke-width:23.619;stroke-opacity:1"/>
      </g>
    </g>
  </g>
</svg>
