<?xml version="1.0" encoding="UTF-8" standalone="no"?>
<svg width="64" height="64" version="1.1" viewBox="0 0 64 64" xmlns:xlink="http://www.w3.org/1999/xlink" xmlns="http://www.w3.org/2000/svg">
  <defs>
    <linearGradient id="linearGradient4208">
      <stop style="stop-color:#3dcafa;stop-opacity:1" offset="0"/>
      <stop style="stop-color:#1d85ed;stop-opacity:0;" offset="1"/>
    </linearGradient>
    <linearGradient xlink:href="#linearGradient4208" id="linearGradient4214" x1="30.75" y1="0.75000167" x2="34.25" y2="57.25" gradientUnits="userSpaceOnUse" gradientTransform="matrix(0.90322582,0,0,0.90322582,3.0967743,3.0967743)"/>
  </defs>
  <g style="display:inline">
    <rect style="opacity:1;fill:#ffffff;fill-opacity:1;stroke:none;stroke-width:2;stroke-linecap:round;stroke-linejoin:round;stroke-miterlimit:4;stroke-dasharray:none;stroke-opacity:1" width="62" height="62" x="1" y="1" rx="31" ry="31"/>
    <rect style="opacity:1;fill:#1d85ed;fill-opacity:1;stroke:none;stroke-width:2;stroke-linecap:round;stroke-linejoin:round;stroke-miterlimit:4;stroke-dasharray:none;stroke-opacity:1" width="56" height="56" x="4" y="4" rx="28" ry="28"/>
    <rect style="opacity:1;fill:url(#linearGradient4214);fill-opacity:1;stroke:none;stroke-width:2;stroke-linecap:round;stroke-linejoin:round;stroke-miterlimit:4;stroke-dasharray:none;stroke-opacity:1" width="56" height="56" x="4" y="4" rx="28" ry="28"/>
    <path d="M11.286,57.886C10.673,57.273 7.883,56.737 5.086,56.695C-1.110,56.601 -1.316,55.536 3.888,50.485C7.199,47.272 7.839,45.954 8.200,41.606C8.793,34.461 12.632,26.715 19.858,18.089C25.643,11.181 25.938,10.589 24.423,8.915C23.533,7.931 23.100,6.648 23.461,6.063C24.523,4.345 27.727,4.828 33.000,7.500C35.713,8.875 39.456,10.000 41.318,10.000C45.598,10.000 53.674,14.240 57.219,18.349C61.697,23.539 65.967,37.000 63.135,37.000C62.659,37.000 61.197,36.164 59.885,35.141C58.573,34.119 56.021,32.524 54.214,31.597C51.065,29.982 50.820,29.997 48.329,31.956C46.900,33.080 44.861,34.000 43.799,34.000C41.010,34.000 38.000,32.165 38.000,30.465C38.000,28.499 33.655,28.569 27.428,30.635C21.033,32.757 18.572,35.094 14.922,42.508C12.032,48.378 11.982,48.712 13.465,52.261C14.309,54.282 15.000,56.625 15.000,57.468C15.000,59.255 12.893,59.493 11.286,57.886z" fill="#181638"/>
  </g>
</svg>
