<?xml version="1.0" encoding="UTF-8" standalone="no"?>
<svg width="64px" height="64px" version="1.1" xmlns="http://www.w3.org/2000/svg">
  <g>
    <g transform="translate(5.3751125,2.7501125)">
      <rect style="fill:#f9fdfd;fill-opacity:1;stroke:#881c0c;stroke-width:1.153;stroke-linecap:round;stroke-linejoin:round;stroke-miterlimit:4;stroke-dasharray:none;stroke-opacity:1" width="38.84655" height="50.84655" x="12.576725" y="6.576725" rx="0.21904609" ry="1.5953909"/>
      <path style="fill:#bd2812;fill-opacity:1;stroke:none" d="M 10.03125,0.5 C 9.902069,0.5 9.8125,1.221269 9.8125,2.125 V 8.5 H 1.96875 C 1.56506,8.5 1.25,8.742056 1.25,9.03125 v 6.9375 C 1.25,16.257944 1.56506,16.5 1.96875,16.5 H 9.8125 v 7.375 c 0,0.903731 0.08957,1.625 0.21875,1.625 h 7.5625 c 0.129181,0 0.21875,-0.721269 0.21875,-1.625 V 16.5 h 7.71875 C 25.93494,16.5 26.25,16.257944 26.25,15.96875 V 9.03125 C 26.25,8.742056 25.93494,8.5 25.53125,8.5 H 17.8125 V 2.125 C 17.8125,1.221269 17.72293,0.5 17.59375,0.5 Z"/>
    </g>
  </g>
</svg>
