<?xml version="1.0" encoding="UTF-8" standalone="no"?>
<svg width="64" height="64" version="1.1" viewBox="0 0 64 64" xmlns="http://www.w3.org/2000/svg">
  <g style="display:inline">
    <rect style="opacity:0.95;fill:#4e4e4e;fill-opacity:1;stroke:none;stroke-width:2.15649;stroke-linecap:round;stroke-linejoin:round;stroke-miterlimit:4;stroke-dasharray:none;stroke-opacity:1" width="46" height="43.086758" x="9" y="11.913242" rx="1.0454546" ry="1.1968542"/>
    <path style="fill:#c8c8c8;fill-opacity:1;fill-rule:evenodd;stroke:none;stroke-width:1px;stroke-linecap:butt;stroke-linejoin:miter;stroke-opacity:1" d="m 59.500118,42.2807 -2.282026,5.464007 -2.474874,1.799908 -3.567675,-5.785419 z"/>
    <path style="fill:#c8c8c8;fill-opacity:1;fill-rule:evenodd;stroke:none;stroke-width:1px;stroke-linecap:butt;stroke-linejoin:miter;stroke-opacity:1" d="m 59.500118,22.2807 -2.282026,5.464007 -2.474874,1.799908 -3.567675,-5.785419 z"/>
    <path style="fill:#c8c8c8;fill-opacity:1;fill-rule:evenodd;stroke:none;stroke-width:1px;stroke-linecap:butt;stroke-linejoin:miter;stroke-opacity:1" d="m 4.564053,42.2807 2.282026,5.464007 2.474874,1.799908 3.567675,-5.785419 z"/>
    <path style="fill:#c8c8c8;fill-opacity:1;fill-rule:evenodd;stroke:none;stroke-width:1px;stroke-linecap:butt;stroke-linejoin:miter;stroke-opacity:1" d="m 4.5640529,22.2807 2.2820264,5.464007 2.4748737,1.799908 3.567675,-5.785419 z"/>
    <path style="opacity:0.98;fill:#7e7e7e;fill-opacity:1;stroke:none;stroke-width:2.15649;stroke-linecap:round;stroke-linejoin:round;stroke-miterlimit:4;stroke-dasharray:none;stroke-opacity:1" d="M 10.044922,9 C 9.46574,9 9,9.5342084 9,10.197266 v 40.693359 c 0,0.663057 0.46574,1.195313 1.044922,1.195313 H 53.955078 C 54.53426,52.085938 55,51.553682 55,50.890625 V 10.197266 C 55,9.5342084 54.53426,9 53.955078,9 H 42 v 2 H 22 V 9 Z"/>
    <path style="opacity:1;fill:#4e4e4e;fill-opacity:1;stroke:none;stroke-width:2;stroke-linecap:round;stroke-linejoin:round;stroke-miterlimit:4;stroke-dasharray:none;stroke-opacity:1" d="M 32,21 A 10,10 0 0 1 22,11 H 42 A 10,10 0 0 1 32,21 Z"/>
    <circle style="opacity:1;fill:#363636;fill-opacity:1;stroke:none;stroke-width:2;stroke-linecap:round;stroke-linejoin:round;stroke-miterlimit:4;stroke-dasharray:none;stroke-opacity:1" cx="20.170656" cy="26.344521" r="5"/>
    <path style="fill:#e0e0e0;fill-opacity:1;fill-rule:evenodd;stroke:#e0e0e0;stroke-width:1.107;stroke-linecap:round;stroke-linejoin:round;stroke-miterlimit:4;stroke-dasharray:none;stroke-opacity:1" d="M 10.946618,13.483854 V 25.955007 L 5.0533815,22.213661 V 17.2252 Z"/>
    <path style="fill:none;fill-rule:evenodd;stroke:none;stroke-width:1px;stroke-linecap:butt;stroke-linejoin:miter;stroke-opacity:1" d="m 9.3181818,33.795454 -4.75,-11.40909 L 12.045455,23.75 Z"/>
    <path style="fill:#e0e0e0;fill-opacity:1;fill-rule:evenodd;stroke:#e0e0e0;stroke-width:1.107;stroke-linecap:round;stroke-linejoin:round;stroke-miterlimit:4;stroke-dasharray:none;stroke-opacity:1" d="M 10.946618,33.483854 V 45.955007 L 5.053381,42.213661 V 37.2252 Z"/>
    <path style="fill:#e0e0e0;fill-opacity:1;fill-rule:evenodd;stroke:#e0e0e0;stroke-width:1.107;stroke-linecap:round;stroke-linejoin:round;stroke-miterlimit:4;stroke-dasharray:none;stroke-opacity:1" d="m 53.053381,33.483854 v 12.471153 l 5.893237,-3.741346 V 37.2252 Z"/>
    <path style="fill:#e0e0e0;fill-opacity:1;fill-rule:evenodd;stroke:#e0e0e0;stroke-width:1.107;stroke-linecap:round;stroke-linejoin:round;stroke-miterlimit:4;stroke-dasharray:none;stroke-opacity:1" d="m 53.053381,13.483854 v 12.471153 l 5.893237,-3.741346 V 17.2252 Z"/>
  </g>
</svg>
