<?xml version="1.0" encoding="UTF-8" standalone="no"?>
<svg width="64px" height="64px" version="1.1" xmlns="http://www.w3.org/2000/svg">
  <g>
    <g transform="translate(0,0.57399225)">
      <rect style="fill:#ffffff;fill-opacity:1;stroke:#4e4e4e;stroke-width:2.5;stroke-linecap:round;stroke-linejoin:round;stroke-miterlimit:4;stroke-dasharray:none;stroke-opacity:1" width="38.079033" height="49.841938" x="12.960485" y="11.197577" rx="0.21471824" ry="1.5638696"/>
      <path style="fill:#bd2812;fill-opacity:1;stroke:none" d="m 32,0.5625 c -3.313708,0 -6,2.6862915 -6,6 0,1.1183766 0.310929,2.1662069 0.84375,3.0625 H 19.5 v 8.0625 h 25 V 9.625 H 37.15625 C 37.689071,8.7287069 38,7.6808766 38,6.5625 c 0,-3.3137085 -2.686292,-6 -6,-6 z m 0,3.5 c 1.380712,0 2.5,1.1192881 2.5,2.5 0,1.3807119 -1.119288,2.5 -2.5,2.5 -1.380712,0 -2.5,-1.1192881 -2.5,-2.5 0,-1.3807119 1.119288,-2.5 2.5,-2.5 z"/>
    </g>
  </g>
</svg>
