<?xml version="1.0" encoding="UTF-8" standalone="no"?>
<svg width="64" height="64" version="1.1" viewBox="0 0 64 64" xmlns="http://www.w3.org/2000/svg">
  <g>
    <g transform="translate(-3,-2.750225)">
      <rect style="fill:#f9fdfd;fill-opacity:1;stroke:#881c0c;stroke-width:1.153;stroke-linecap:round;stroke-linejoin:round;stroke-miterlimit:4;stroke-dasharray:none;stroke-opacity:1" width="38.84655" height="50.84655" x="12.5765" y="6.5769501" rx="0.21904609" ry="1.5953909"/>
      <path style="opacity:1;fill:#bd2812;fill-opacity:1;stroke:none;stroke-width:8.22876;stroke-linecap:round;stroke-linejoin:round;stroke-miterlimit:4;stroke-dasharray:none;stroke-opacity:1" d="M 58,34.549146 V 48.810102 H 43.739045 l 5.067466,-5.067467 a 8.556573,8.5565742 0 0 0 -6.545556,-3.060163 8.556573,8.5565742 0 0 0 -8.556573,8.556573 8.556573,8.5565742 0 0 0 8.556573,8.556573 8.556573,8.5565742 0 0 0 7.015352,-3.676653 l 4.072171,4.072171 A 14.260955,14.260957 0 0 1 42.260955,63.5 14.260955,14.260957 0 0 1 28,49.239045 14.260955,14.260957 0 0 1 42.260955,34.978089 14.260955,14.260957 0 0 1 52.839687,39.709458 Z"/>
    </g>
  </g>
</svg>
