<?xml version="1.0" encoding="UTF-8" standalone="no"?>
<svg version="1.1" xml:space="preserve" enable-background="new 0 0 65 65" y="0px" x="0px" viewBox="0 0 32 32" width="32" height="32" xmlns="http://www.w3.org/2000/svg">
  <g style="fill:#bd2812;fill-opacity:1" transform="matrix(0.45454545,0,0,0.43148829,1.2272729,1.9764148)">
    <g fill="#555753" style="fill:#bd2812;fill-opacity:1">
      <path d="m 32.5,4.999 c -5.405,0 -10.444,1.577 -14.699,4.282 l -5.75,-5.75 v 16.11 h 16.11 l -6.395,-6.395 c 3.18,-1.787 6.834,-2.82 10.734,-2.82 12.171,0 22.073,9.902 22.073,22.074 0,2.899 -0.577,5.664 -1.599,8.202 l 4.738,2.762 C 59.182,40.101 60,36.396 60,32.5 60,17.336 47.663,4.999 32.5,4.999 Z" style="fill:#bd2812;fill-opacity:1"/>
      <path d="m 43.227,51.746 c -3.179,1.786 -6.826,2.827 -10.726,2.827 -12.171,0 -22.073,-9.902 -22.073,-22.073 0,-2.739 0.524,-5.35 1.439,-7.771 L 7.136,21.878 C 5.761,25.149 5,28.736 5,32.5 5,47.664 17.336,60 32.5,60 c 5.406,0 10.434,-1.584 14.691,-4.289 l 5.758,5.759 V 45.358 H 36.838 Z" style="fill:#bd2812;fill-opacity:1"/>
    </g>
  </g>
</svg>
