<?xml version="1.0" encoding="UTF-8" standalone="no"?>
<svg width="64" height="64" version="1.1" viewBox="0 0 64 64" xmlns="http://www.w3.org/2000/svg">
  <g style="display:inline">
    <path style="opacity:1;fill:#bd2812;fill-opacity:1;stroke:none;stroke-width:8.22876;stroke-linecap:round;stroke-linejoin:round;stroke-miterlimit:4;stroke-dasharray:none;stroke-opacity:1" d="M 57,8.7485771 V 32.516836 H 33.231741 l 8.445778,-8.445778 A 14.260955,14.260957 0 0 0 30.768259,18.970786 14.260955,14.260957 0 0 0 16.507304,33.231741 14.260955,14.260957 0 0 0 30.768259,47.492696 14.260955,14.260957 0 0 0 42.460511,41.364941 l 6.786952,6.786952 A 23.768259,23.768261 0 0 1 30.768259,57 23.768259,23.768261 0 0 1 7,33.231741 23.768259,23.768261 0 0 1 30.768259,9.4634817 23.768259,23.768261 0 0 1 48.399479,17.349097 Z"/>
  </g>
</svg>
