<?xml version="1.0" encoding="UTF-8" standalone="no"?>
<svg width="64" height="64" version="1.1" viewBox="0 0 64 64" xmlns="http://www.w3.org/2000/svg">
  <g style="display:inline">
    <path style="opacity:1;fill:#bd2812;fill-opacity:1;stroke:none;stroke-width:8.22876;stroke-linecap:round;stroke-linejoin:round;stroke-miterlimit:4;stroke-dasharray:none;stroke-opacity:1" d="M 7,8.7485766 V 32.516836 H 30.768259 L 22.322481,24.071058 A 14.260955,14.260957 0 0 1 33.231741,18.970786 14.260955,14.260957 0 0 1 47.492696,33.231741 14.260955,14.260957 0 0 1 33.231741,47.492696 14.260955,14.260957 0 0 1 21.539489,41.364941 l -6.786952,6.786952 A 23.768259,23.768261 0 0 0 33.231741,57 23.768259,23.768261 0 0 0 57,33.231741 23.768259,23.768261 0 0 0 33.231741,9.4634812 23.768259,23.768261 0 0 0 15.600521,17.349096 Z"/>
  </g>
</svg>
