<?xml version="1.0" encoding="UTF-8" standalone="no"?>
<svg width="64" height="64" version="1.1" viewBox="0 0 64 64" xmlns="http://www.w3.org/2000/svg">
  <g style="display:inline">
    <rect style="opacity:1;fill:#bd2812;fill-opacity:1;stroke:#bd2812;stroke-width:3.5688;stroke-linecap:round;stroke-linejoin:round;stroke-miterlimit:4;stroke-dasharray:none;stroke-opacity:1" width="44.431202" height="44.431202" x="9.7844" y="9.7843981"/>
    <path style="opacity:1;fill:#881c0c;fill-opacity:1;stroke:none;stroke-width:3;stroke-linecap:round;stroke-linejoin:round;stroke-miterlimit:4;stroke-dasharray:none;stroke-opacity:1" d="m 12.509833,31 c -0.764473,0 -1.381038,0.487433 -1.381038,1.091797 V 38.136719 54.908203 56 h 1.381038 38.980335 1.381038 V 54.908203 38.136719 32.091797 C 52.871206,31.487433 52.254641,31 51.490168,31 Z"/>
    <path style="opacity:1;fill:#881c0c;fill-opacity:1;stroke:none;stroke-width:3;stroke-linecap:round;stroke-linejoin:round;stroke-miterlimit:4;stroke-dasharray:none;stroke-opacity:1" d="m 15.5,9.136719 v 0.802734 12.31836 4.441406 C 15.5,27.143152 15.987433,27.5 16.591797,27.5 H 47.408203 C 48.012567,27.5 48.5,27.143152 48.5,26.699219 V 22.257813 9.939453 9.136719 H 47.408203 16.591797 Z m 21.492188,1.84375 h 7.015624 V 25.28125 h -7.015624 z"/>
    <path style="opacity:1;fill:#d7d7d7;fill-opacity:1;stroke:none;stroke-width:3;stroke-linecap:round;stroke-linejoin:round;stroke-miterlimit:4;stroke-dasharray:none;stroke-opacity:1" d="M 15.5,8 V 8.8027344 21.121094 25.5625 c 0,0.443933 0.487433,0.800781 1.091797,0.800781 H 47.408203 C 48.012567,26.363281 48.5,26.006433 48.5,25.5625 V 21.121094 8.8027344 8 H 47.408203 16.591797 Z m 21.492188,1.84375 h 7.015624 v 14.300781 h -7.015624 z"/>
  </g>
</svg>
