<?xml version="1.0" encoding="UTF-8" standalone="no"?>
<svg
   viewBox="0 0 56 64"
   version="1.1"
   id="svg153"
   sodipodi:docname="trash-can_115312.svg"
   inkscape:version="1.2.1 (9c6d41e410, 2022-07-14)"
   xmlns:inkscape="http://www.inkscape.org/namespaces/inkscape"
   xmlns:sodipodi="http://sodipodi.sourceforge.net/DTD/sodipodi-0.dtd"
   xmlns="http://www.w3.org/2000/svg"
   xmlns:svg="http://www.w3.org/2000/svg">
  <sodipodi:namedview
     id="namedview155"
     pagecolor="#ffffff"
     bordercolor="#666666"
     borderopacity="1.0"
     inkscape:showpageshadow="2"
     inkscape:pageopacity="0.0"
     inkscape:pagecheckerboard="0"
     inkscape:deskcolor="#d1d1d1"
     showgrid="false"
     inkscape:zoom="16.046875"
     inkscape:cx="26.827653"
     inkscape:cy="32"
     inkscape:window-width="1350"
     inkscape:window-height="1230"
     inkscape:window-x="468"
     inkscape:window-y="468"
     inkscape:window-maximized="0"
     inkscape:current-layer="Layer_2" />
  <defs
     id="defs137">
    <style
       id="style135">.cls-1{fill:#ff2400;}.cls-2{fill:#ba1d08;}</style>
  </defs>
  <title
     id="title139">Trash Can</title>
  <g
     id="Layer_2"
     data-name="Layer 2">
    <path
       class="cls-1"
       d="m 42.48,64 h -29 a 6,6 0 0 1 -6,-5.5 L 4,16 H 52 L 48.46,58.5 A 6,6 0 0 1 42.48,64 Z"
       id="path141"
       style="display:inline;fill:#bd2812;fill-opacity:1" />
    <path
       class="cls-2"
       d="M 52,8 H 38 V 6 A 6,6 0 0 0 32,0 H 24 A 6,6 0 0 0 18,6 V 8 H 4 a 4,4 0 0 0 -4,4 v 4 H 56 V 12 A 4,4 0 0 0 52,8 Z M 22,6 a 2,2 0 0 1 2,-2 h 8 a 2,2 0 0 1 2,2 V 8 H 22 Z"
       id="path143"
       style="display:inline;fill:#881c0c;fill-opacity:1" />
    <path
       class="cls-2"
       d="M 28,58 A 2,2 0 0 1 26,56 V 24 a 2,2 0 0 1 4,0 v 32 a 2,2 0 0 1 -2,2 z"
       id="path145"
       style="display:inline;fill:#881c0c;fill-opacity:1" />
    <path
       class="cls-2"
       d="M 38,58 H 37.87 A 2,2 0 0 1 36,55.88 l 2,-32 a 2.0039024,2.0039024 0 1 1 4,0.25 l -2,32 A 2,2 0 0 1 38,58 Z"
       id="path147"
       style="display:inline;fill:#881c0c;fill-opacity:1" />
    <path
       class="cls-2"
       d="m 18,58 a 2,2 0 0 1 -2,-1.87 l -2,-32 a 2.0039024,2.0039024 0 0 1 4,-0.25 l 2,32 A 2,2 0 0 1 18.13,58 Z"
       id="path149"
       style="display:inline;fill:#881c0c;fill-opacity:1" />
  </g>
</svg>
