<?xml version="1.0" encoding="UTF-8" standalone="no"?>
<svg width="64" height="64" version="1.1" viewBox="0 0 64 64" xmlns="http://www.w3.org/2000/svg">
  <g>
    <path style="display:inline;opacity:1;fill:#bd2812;fill-opacity:1;stroke:#000000;stroke-width:0;stroke-miterlimit:4;stroke-dasharray:none;stroke-opacity:1;shape-rendering:crispEdges" d="m 13.000005,7.9929379 c -0.00001,-0.9951283 1.032234,-1.9929325 1.868937,-1.9929325 H 40.106154 L 50.966426,18.841351 c 0,0 0.01223,24.823067 0.01223,36.82731 0,0.877652 -1.282271,2.331334 -2.02019,2.331334 -10.949851,0 -33.998202,0 -33.998202,0 -0.850068,0 -1.960148,-0.929251 -1.960148,-1.940305 z"/>
    <path style="display:inline;opacity:1;fill:#881c0c;fill-opacity:1;stroke:#000000;stroke-width:0;stroke-miterlimit:4;stroke-dasharray:none;stroke-opacity:1;shape-rendering:crispEdges" d="M 40.060897,6.0023779 50.999989,18.892885 c 0,0 -6.207783,0.04788 -9.439246,0 -0.755934,-0.01603 -1.474468,-1.124781 -1.499846,-2.023417 -0.107548,-3.807852 0,-10.8670901 0,-10.8670901 z"/>
  </g>
  <g style="display:inline">
    <circle style="display:inline;opacity:1;fill:none;fill-opacity:1;stroke:#ffffff;stroke-width:1.49435;stroke-linecap:round;stroke-linejoin:round;stroke-miterlimit:4;stroke-dasharray:none;stroke-opacity:1" cx="22" cy="31.85878" r="2.2528231"/>
    <circle style="display:inline;opacity:1;fill:none;fill-opacity:1;stroke:#ffffff;stroke-width:1.49435;stroke-linecap:round;stroke-linejoin:round;stroke-miterlimit:4;stroke-dasharray:none;stroke-opacity:1" cx="42" cy="31.85878" r="2.2528231"/>
    <circle style="display:inline;opacity:1;fill:none;fill-opacity:1;stroke:#ffffff;stroke-width:1.49435;stroke-linecap:round;stroke-linejoin:round;stroke-miterlimit:4;stroke-dasharray:none;stroke-opacity:1" cx="42" cy="41.85878" r="2.2528231"/>
    <path style="display:inline;fill:none;fill-rule:evenodd;stroke:#ffffff;stroke-width:2;stroke-linecap:butt;stroke-linejoin:miter;stroke-miterlimit:4;stroke-dasharray:none;stroke-opacity:1" d="m 23.643742,31.85878 h 16"/>
    <path style="display:inline;fill:none;fill-rule:evenodd;stroke:#ffffff;stroke-width:2;stroke-linecap:butt;stroke-linejoin:miter;stroke-miterlimit:4;stroke-dasharray:none;stroke-opacity:1" d="m 28.944711,31.847427 c 6.6533,1.463909 8.52525,10.182091 11.037223,10.16498"/>
  </g>
</svg>
