<?xml version="1.0" encoding="UTF-8" standalone="no"?>
<!-- Uploaded to: SVG Repo, www.svgrepo.com, Generator: SVG Repo Mixer Tools -->

<svg
   version="1.1"
   id="Layer_1"
   viewBox="0 0 495 495"
   xml:space="preserve"
   xmlns="http://www.w3.org/2000/svg"
   xmlns:svg="http://www.w3.org/2000/svg"><defs
   id="defs6" />
<g
   id="g6">
	<path
   style="fill:#623259;fill-opacity:1"
   d="M267.5,60.915V40h-40v20.915c6.611-0.599,13.281-0.915,20-0.915S260.889,60.316,267.5,60.915z"
   id="path1" />
	<rect
   x="184.231"
   style="fill:#758eff;fill-opacity:1"
   width="126.537"
   height="40"
   id="rect1" />
	<path
   style="fill:#623259;fill-opacity:1"
   d="M376.917,73.716l-35.428-18.572l-11.089,21.152c12.32,5.076,24.161,11.309,35.401,18.624   L376.917,73.716z"
   id="path2" />
	<path
   style="fill:#623259;fill-opacity:1"
   d="M153.511,55.144l-35.428,18.572l11.116,21.204c11.24-7.315,23.081-13.548,35.401-18.624   L153.511,55.144z"
   id="path3" />
	<path
   style="fill:#E0E0E2;"
   d="M227.5,297.5V150h20v-50C149.626,100,70,179.626,70,277.5S149.626,455,247.5,455V297.5H227.5z"
   id="path4" />
	<path
   style="fill:#C6C5CA;"
   d="M247.5,100v50h20v107.5H375v40H247.5V455c97.874,0,177.5-79.626,177.5-177.5S345.374,100,247.5,100z   "
   id="path5" />
	<path
   style="fill:#758eff;fill-opacity:1"
   d="M401.296,123.704c-10.933-10.933-22.833-20.545-35.495-28.785   c-11.24-7.315-23.081-13.548-35.401-18.624c-19.916-8.205-41.07-13.403-62.901-15.38c-6.611-0.599-13.281-0.915-20-0.915   s-13.389,0.316-20,0.915c-21.83,1.978-42.985,7.175-62.901,15.38c-12.32,5.076-24.161,11.309-35.401,18.624   c-12.661,8.24-24.562,17.852-35.495,28.785C52.624,164.784,30,219.403,30,277.5s22.624,112.716,63.704,153.796   S189.403,495,247.5,495s112.716-22.624,153.796-63.704S465,335.597,465,277.5S442.376,164.784,401.296,123.704z M247.5,455   C149.626,455,70,375.374,70,277.5S149.626,100,247.5,100S425,179.626,425,277.5S345.374,455,247.5,455z"
   id="path6" />
	<polygon
   style="fill:#005ECE;"
   points="227.5,297.5 375,297.5 375,257.5 267.5,257.5 267.5,150 227.5,150  "
   id="polygon6" />
</g>
</svg>
