<?xml version="1.0" encoding="UTF-8" standalone="no"?>
<svg width="64px" height="64px" version="1.1" xmlns="http://www.w3.org/2000/svg">
  <g style="display:inline">
    <rect style="fill:#a59290;fill-opacity:1;stroke:#a59290;stroke-width:2.32425332;stroke-linecap:round;stroke-linejoin:round;stroke-miterlimit:4;stroke-opacity:1;stroke-dasharray:none" width="50.675747" height="17.175747" x="6.662127" y="42.662125" rx="5.9730039"/>
    <rect style="fill:#e1dada;fill-opacity:1;stroke:#e1dada;stroke-width:3.15134335;stroke-linecap:round;stroke-linejoin:round;stroke-miterlimit:4;stroke-opacity:1;stroke-dasharray:none" width="49.848656" height="32.098656" x="7.0756717" y="23.32567" rx="5.8755174"/>
    <rect style="fill:#597bf0;fill-opacity:1;stroke:#597bf0;stroke-width:3.47284389;stroke-linecap:round;stroke-linejoin:round;stroke-miterlimit:4;stroke-opacity:1;stroke-dasharray:none" width="46.527153" height="41.765038" x="8.7364216" y="7.4985371" rx="5.4840212"/>
    <rect style="fill:#89a2f4;fill-opacity:1;stroke:#89a2f4;stroke-width:3.44548702;stroke-linecap:round;stroke-linejoin:round;stroke-miterlimit:4;stroke-opacity:1;stroke-dasharray:none" width="46.554512" height="41.085472" x="8.722743" y="2.141005" rx="5.4872456"/>
    <g style="font-size:45px;font-style:normal;font-variant:normal;font-weight:normal;font-stretch:normal;line-height:125%;letter-spacing:0px;word-spacing:0px;fill:#ffff00;fill-opacity:1;stroke:none;font-family:Liberation Sans;-inkscape-font-specification:Liberation Sans">
      <path d="m 42.755615,22.683743 c -0.000023,2.973645 -0.285667,5.478525 -0.856933,7.514648 -0.556663,2.02149 -1.325705,3.662114 -2.307129,4.921875 -0.966816,1.245119 -2.109393,2.138673 -3.427735,2.680664 -1.318374,0.541992 -2.724623,0.812988 -4.21875,0.812988 -1.5088,0 -2.915048,-0.270996 -4.21875,-0.812988 -1.303718,-0.541991 -2.43897,-1.435545 -3.405761,-2.680664 -0.952153,-1.245113 -1.706546,-2.878412 -2.263184,-4.899902 -0.541994,-2.036123 -0.81299,-4.548328 -0.812988,-7.536621 -0.000002,-3.120099 0.270994,-5.698221 0.812988,-7.734375 0.556638,-2.050756 1.318356,-3.684056 2.285156,-4.899903 0.966791,-1.2157908 2.109368,-2.0653993 3.427735,-2.5488279 1.318349,-0.4980157 2.753895,-0.7470389 4.30664,-0.7470704 1.479478,0.0000315 2.863754,0.2490547 4.152832,0.7470704 1.303693,0.4834286 2.438946,1.3330371 3.405762,2.5488279 0.966776,1.215847 1.728494,2.849147 2.285156,4.899903 0.556618,2.036154 0.834938,4.614276 0.834961,7.734375 m -4.020996,0 c -0.000019,-2.46092 -0.146503,-4.504375 -0.439453,-6.130372 -0.292987,-1.640601 -0.725116,-2.944311 -1.296387,-3.911132 -0.571306,-0.981419 -1.27443,-1.669895 -2.109375,-2.06543 -0.820327,-0.410128 -1.757826,-0.6152062 -2.8125,-0.6152344 -1.113292,0.0000282 -2.094737,0.2051064 -2.944336,0.6152344 -0.849618,0.410183 -1.567391,1.105983 -2.15332,2.087402 -0.571296,0.966822 -1.003424,2.270531 -1.296387,3.911133 -0.292974,1.625997 -0.439459,3.662127 -0.439453,6.108399 -0.000006,2.37306 0.146479,4.372569 0.439453,5.998535 0.307611,1.625984 0.747064,2.937018 1.31836,3.933105 0.585929,0.98145 1.296378,1.691899 2.131347,2.131348 0.834951,0.424807 1.787098,0.63721 2.856446,0.637207 1.040025,0.000003 1.977524,-0.2124 2.8125,-0.637207 0.834944,-0.439449 1.538069,-1.149898 2.109375,-2.131348 0.585919,-0.996087 1.032696,-2.307121 1.340332,-3.933105 0.322246,-1.625966 0.483379,-3.625475 0.483398,-5.998535" style=""/>
    </g>
  </g>
</svg>
