<?xml version="1.0" encoding="UTF-8" standalone="no"?>
<svg width="64px" height="64px" version="1.1" xmlns="http://www.w3.org/2000/svg">
  <g style="display:inline">
    <path style="fill:#9f9796;fill-opacity:1;stroke:none" d="m 48.436813,49.018173 a 16.484426,14.981825 0 1 1 -32.968853,0 16.484426,14.981825 0 1 1 32.968853,0 z" transform="matrix(1.6075779,0,0,1.6076813,-19.365951,-41.8916)"/>
    <path style="fill:#e1dada;fill-opacity:1;stroke:none" d="m 48.436813,49.018173 a 16.484426,14.981825 0 1 1 -32.968853,0 16.484426,14.981825 0 1 1 32.968853,0 z" transform="matrix(1.6075779,0,0,1.6076813,-19.365951,-43.891599)"/>
    <path style="fill:#881c0c;fill-opacity:1;stroke:none" d="m 48.436813,49.018173 a 16.484426,14.981825 0 1 1 -32.968853,0 16.484426,14.981825 0 1 1 32.968853,0 z" transform="matrix(1.4559196,0,0,1.4560133,-14.520107,-37.184847)"/>
    <path style="fill:#bd2812;fill-opacity:1;stroke:none" d="m 48.436813,49.018173 a 16.484426,14.981825 0 1 1 -32.968853,0 16.484426,14.981825 0 1 1 32.968853,0 z" transform="matrix(1.4569906,0,0,1.4560133,-14.556673,-39.184847)"/>
  </g>
</svg>
