<?xml version="1.0" encoding="UTF-8" standalone="no"?>
<!-- Created with Inkscape (http://www.inkscape.org/) -->

<svg
   xmlns:dc="http://purl.org/dc/elements/1.1/"
   xmlns:cc="http://creativecommons.org/ns#"
   xmlns:rdf="http://www.w3.org/1999/02/22-rdf-syntax-ns#"
   xmlns:svg="http://www.w3.org/2000/svg"
   xmlns="http://www.w3.org/2000/svg"
   xmlns:sodipodi="http://sodipodi.sourceforge.net/DTD/sodipodi-0.dtd"
   xmlns:inkscape="http://www.inkscape.org/namespaces/inkscape"
   width="64px"
   height="64px"
   id="svg2985"
   version="1.1"
   inkscape:version="0.48.4 r9939"
   sodipodi:docname="RedLedOff.svg">
  <defs
     id="defs2987">
    <filter
       inkscape:collect="always"
       id="filter3892">
      <feGaussianBlur
         inkscape:collect="always"
         stdDeviation="0.475"
         id="feGaussianBlur3894" />
    </filter>
    <filter
       inkscape:collect="always"
       id="filter3779"
       x="-0.11384645"
       width="1.2276929"
       y="-0.12649606"
       height="1.2529921">
      <feGaussianBlur
         inkscape:collect="always"
         stdDeviation="2.3718011"
         id="feGaussianBlur3781" />
    </filter>
  </defs>
  <sodipodi:namedview
     id="base"
     pagecolor="#ffffff"
     bordercolor="#666666"
     borderopacity="1.0"
     inkscape:pageopacity="0.0"
     inkscape:pageshadow="2"
     inkscape:zoom="7.7781746"
     inkscape:cx="35.824243"
     inkscape:cy="31.479136"
     inkscape:current-layer="layer1"
     showgrid="false"
     inkscape:document-units="px"
     inkscape:grid-bbox="true"
     inkscape:window-width="1920"
     inkscape:window-height="1017"
     inkscape:window-x="0"
     inkscape:window-y="22"
     inkscape:window-maximized="1">
    <inkscape:grid
       type="xygrid"
       id="grid2993" />
  </sodipodi:namedview>
  <metadata
     id="metadata2990">
    <rdf:RDF>
      <cc:Work
         rdf:about="">
        <dc:format>image/svg+xml</dc:format>
        <dc:type
           rdf:resource="http://purl.org/dc/dcmitype/StillImage" />
        <dc:title></dc:title>
      </cc:Work>
    </rdf:RDF>
  </metadata>
  <g
     id="layer1"
     inkscape:label="Layer 1"
     inkscape:groupmode="layer">
    <path
       sodipodi:type="arc"
       style="opacity:0.81907893;fill:none;stroke:#856e6b;stroke-width:5;stroke-linecap:round;stroke-linejoin:round;stroke-miterlimit:4;stroke-opacity:1;stroke-dasharray:none;filter:url(#filter3892)"
       id="path2995-6"
       sodipodi:cx="35"
       sodipodi:cy="31.5"
       sodipodi:rx="25"
       sodipodi:ry="22.5"
       d="m 60,31.5 a 25,22.5 0 1 1 -50,0 25,22.5 0 1 1 50,0 z"
       transform="matrix(0.98181818,0,0,0.98181818,-2.3633636,6.4080001)" />
    <path
       sodipodi:type="arc"
       style="opacity:0.81907893;fill:none;stroke:#a59290;stroke-width:5;stroke-linecap:round;stroke-linejoin:round;stroke-miterlimit:4;stroke-opacity:1;stroke-dasharray:none"
       id="path2995"
       sodipodi:cx="35"
       sodipodi:cy="31.5"
       sodipodi:rx="25"
       sodipodi:ry="22.5"
       d="m 60,31.5 a 25,22.5 0 1 1 -50,0 25,22.5 0 1 1 50,0 z"
       transform="matrix(0.98181818,0,0,0.98181818,-2.3636364,4.5272728)" />
    <path
       sodipodi:type="arc"
       style="fill:#e1dada;fill-opacity:1;stroke:#e1dada;stroke-width:5;stroke-linecap:round;stroke-linejoin:round;stroke-miterlimit:4;stroke-opacity:1;stroke-dasharray:none"
       id="path2995-1"
       sodipodi:cx="35"
       sodipodi:cy="31.5"
       sodipodi:rx="25"
       sodipodi:ry="22.5"
       d="m 60,31.5 a 25,22.5 0 1 1 -50,0 25,22.5 0 1 1 50,0 z"
       transform="matrix(0.98181818,0,0,0.98181818,-2.3636364,2.5272726)" />
    <path
       sodipodi:type="arc"
       style="opacity:0.45394737000000002;fill:#ff383d;fill-opacity:1;stroke:none"
       id="path2995-1-9"
       sodipodi:cx="35"
       sodipodi:cy="31.5"
       sodipodi:rx="25"
       sodipodi:ry="22.5"
       d="m 60,31.5 a 25,22.5 0 1 1 -50,0 25,22.5 0 1 1 50,0 z"
       transform="matrix(0.98181818,0,0,1.110383,-2.3636364,-4.4152303)" />
    <path
       sodipodi:type="arc"
       style="opacity:0.45394736000000002;fill:#ff0d13;fill-opacity:1;stroke:none;filter:url(#filter3779)"
       id="path2995-1-9-2"
       sodipodi:cx="35"
       sodipodi:cy="31.5"
       sodipodi:rx="25"
       sodipodi:ry="22.5"
       d="m 60,31.5 a 25,22.5 0 1 1 -50,0 25,22.5 0 1 1 50,0 z"
       transform="matrix(0.98181818,0,0,1.110383,-2.3636364,-3.2813404)" />
  </g>
</svg>
