<?xml version="1.0" encoding="UTF-8" standalone="no"?>
<!-- Created with Inkscape (http://www.inkscape.org/) -->

<svg
   width="64px"
   height="64px"
   id="svg2985"
   version="1.1"
   inkscape:version="1.4.1 (93de688d07, 2025-03-30)"
   sodipodi:docname="counter_a1.svg"
   inkscape:export-filename="/home/davi/git/wiRedPanda/app/resources/output/counter/counter_on.png"
   inkscape:export-xdpi="90"
   inkscape:export-ydpi="90"
   xmlns:inkscape="http://www.inkscape.org/namespaces/inkscape"
   xmlns:sodipodi="http://sodipodi.sourceforge.net/DTD/sodipodi-0.dtd"
   xmlns="http://www.w3.org/2000/svg"
   xmlns:svg="http://www.w3.org/2000/svg"
   xmlns:rdf="http://www.w3.org/1999/02/22-rdf-syntax-ns#"
   xmlns:cc="http://creativecommons.org/ns#"
   xmlns:dc="http://purl.org/dc/elements/1.1/">
  <defs
     id="defs2987">
    <filter
       id="filter3987"
       inkscape:label="Glow"
       inkscape:menu="Shadows and Glows"
       inkscape:menu-tooltip="Glow of object's own color at the edges"
       color-interpolation-filters="sRGB">
      <feGaussianBlur
         id="feGaussianBlur3989"
         stdDeviation="5"
         result="result91" />
      <feComposite
         id="feComposite3991"
         in2="result91"
         in="SourceGraphic"
         operator="over" />
    </filter>
    <filter
       id="filter3892"
       inkscape:label="Glow"
       inkscape:menu="Shadows and Glows"
       inkscape:menu-tooltip="Glow of object's own color at the edges"
       color-interpolation-filters="sRGB">
      <feGaussianBlur
         id="feGaussianBlur3894"
         stdDeviation="5"
         result="result91" />
      <feComposite
         id="feComposite3896"
         in2="result91"
         in="SourceGraphic"
         operator="over" />
    </filter>
  </defs>
  <sodipodi:namedview
     id="base"
     pagecolor="#ffffff"
     bordercolor="#666666"
     borderopacity="1.0"
     inkscape:pageopacity="0.0"
     inkscape:pageshadow="2"
     inkscape:zoom="11.313708"
     inkscape:cx="17.235729"
     inkscape:cy="35.974059"
     inkscape:current-layer="layer1"
     showgrid="true"
     inkscape:document-units="px"
     inkscape:grid-bbox="true"
     showguides="true"
     inkscape:guide-bbox="true"
     inkscape:window-width="1920"
     inkscape:window-height="1017"
     inkscape:window-x="0"
     inkscape:window-y="40"
     inkscape:window-maximized="1"
     inkscape:showpageshadow="2"
     inkscape:pagecheckerboard="0"
     inkscape:deskcolor="#d1d1d1">
    <sodipodi:guide
       orientation="1,0"
       position="32.003906,43.21875"
       id="guide2993"
       inkscape:locked="false" />
  </sodipodi:namedview>
  <metadata
     id="metadata2990">
    <rdf:RDF>
      <cc:Work
         rdf:about="">
        <dc:format>image/svg+xml</dc:format>
        <dc:type
           rdf:resource="http://purl.org/dc/dcmitype/StillImage" />
      </cc:Work>
    </rdf:RDF>
  </metadata>
  <g
     id="layer1"
     inkscape:label="Layer 1"
     inkscape:groupmode="layer"
     style="display:inline">
    <rect
       style="display:none;fill:#0a1404;fill-opacity:1;stroke:#0a1404;stroke-width:2.91463;stroke-linecap:butt;stroke-linejoin:miter;stroke-miterlimit:4;stroke-dasharray:none;stroke-opacity:1"
       id="rect3917-7"
       width="38.887859"
       height="48.698963"
       x="12.420071"
       y="9.8861675"
       rx="3.4471457"
       ry="2.7400389" />
    <rect
       style="display:none;fill:#152b09;fill-opacity:1;stroke:#162b09;stroke-width:2.91463;stroke-linecap:butt;stroke-linejoin:miter;stroke-miterlimit:4;stroke-dasharray:none;stroke-opacity:1"
       id="rect3917"
       width="38.887859"
       height="48.698963"
       x="12.420071"
       y="5.8861685"
       rx="3.4471457"
       ry="2.7400389" />
    <rect
       style="display:none;fill:#612c28;fill-opacity:0.682353;stroke:none"
       id="rect3921-7-9"
       width="9.749999"
       height="4.7729707"
       x="28.1215"
       y="7.604815"
       ry="2.3864853" />
    <rect
       style="display:none;fill:#612c28;fill-opacity:0.682353;stroke:none"
       id="rect3921-7-3-1"
       width="9.75"
       height="4.7729707"
       x="17.996504"
       y="7.7412972"
       ry="2.3864853" />
    <rect
       style="display:none;fill:#612c28;fill-opacity:0.682353;stroke:none"
       id="rect3921-3"
       width="20"
       height="4.7729707"
       x="10.5"
       y="-18.77297"
       ry="2.3864853"
       transform="rotate(90)" />
    <rect
       style="display:none;fill:#612c28;fill-opacity:0.682353;stroke:none"
       id="rect3921-1"
       width="20"
       height="4.7729707"
       x="10.5"
       y="-41.999969"
       ry="2.3864853"
       transform="rotate(90)" />
    <rect
       style="display:none;fill:#612c28;fill-opacity:0.682353;stroke:none"
       id="rect3921-7"
       width="9.749999"
       height="4.7729707"
       x="28.25"
       y="28.72703"
       ry="2.3864853" />
    <rect
       style="display:none;fill:#612c28;fill-opacity:0.682353;stroke:none"
       id="rect3921-4"
       width="20"
       height="4.7729998"
       x="31.6"
       y="-18.772999"
       ry="2.3864999"
       transform="rotate(90)" />
    <rect
       style="display:none;fill:#612c28;fill-opacity:0.682353;stroke:none"
       id="rect3921-9"
       width="20"
       height="4.7729707"
       x="31.6"
       y="-41.999969"
       ry="2.3864853"
       transform="rotate(90)" />
    <ellipse
       style="display:none;fill:#612c28;fill-opacity:0.682353;stroke:none"
       id="path4019"
       transform="matrix(1.000051,0,0,1.0633454,55.922321,31.55982)"
       cx="-9.6343298"
       cy="18.082253"
       rx="3.7123106"
       ry="3.4913397" />
    <rect
       style="display:none;fill:#612c28;fill-opacity:0.682353;stroke:none"
       id="rect3921-7-3"
       width="9.75"
       height="4.7729707"
       x="18.125002"
       y="28.863514"
       ry="2.3864853" />
    <rect
       style="display:none;fill:#612c28;fill-opacity:0.682353;stroke:none"
       id="rect3921-7-6"
       width="9.749999"
       height="4.7729707"
       x="28.202978"
       y="49.826717"
       ry="2.3864853" />
    <rect
       style="display:none;fill:#612c28;fill-opacity:0.682353;stroke:none"
       id="rect3921-7-3-7"
       width="9.75"
       height="4.7729707"
       x="18.07798"
       y="49.963203"
       ry="2.3864853" />
    <rect
       style="display:none;fill:#612c28;fill-opacity:0.682353;stroke:none"
       id="rect3921-1-6"
       width="16.375"
       height="4.7729707"
       x="12.624998"
       y="-30.386486"
       ry="2.3864853"
       transform="rotate(90)" />
    <rect
       style="display:none;fill:#612c28;fill-opacity:0.682353;stroke:none"
       id="rect3921-1-6-7"
       width="16.375"
       height="4.7729707"
       x="33.1875"
       y="-30.386488"
       ry="2.3864853"
       transform="rotate(90)" />
    <rect
       style="display:none;fill:#612c28;fill-opacity:0.682353;stroke:none"
       id="rect3921-1-5"
       width="16.199301"
       height="4.7729707"
       x="-32.263752"
       y="15.866602"
       ry="2.3864853"
       transform="rotate(-100)" />
    <rect
       style="display:none;fill:#612c28;fill-opacity:0.682353;stroke:none"
       id="rect3921-1-5-3"
       width="16.199301"
       height="4.7729707"
       x="6.318985"
       y="34.479637"
       ry="2.3864853"
       transform="matrix(-0.17364818,0.98480775,0.98480775,0.17364818,0,0)" />
    <rect
       style="display:none;fill:#612c28;fill-opacity:0.682353;stroke:none"
       id="rect3921-1-5-5"
       width="16.199301"
       height="4.7729707"
       x="29.124075"
       y="26.72348"
       ry="2.3864853"
       transform="matrix(-0.17364818,0.98480775,0.98480775,0.17364818,0,0)" />
    <rect
       style="display:none;fill:#612c28;fill-opacity:0.682353;stroke:none"
       id="rect3921-1-5-3-6"
       width="16.199301"
       height="4.7729707"
       x="-55.079971"
       y="23.685892"
       ry="2.3864853"
       transform="rotate(-100)" />
    <path
       style="display:none;fill:#ff0000;stroke-width:0.0883884"
       d="M 15.354808,51.302566 C 14.861039,51.05651 14.554555,50.74297 14.248397,50.170684 l -0.194649,-0.363848 -0.02437,-7.990796 c -0.02676,-8.772658 -0.04087,-8.512805 0.502289,-9.250546 0.145439,-0.197542 0.475265,-0.475959 0.732948,-0.618705 0.403045,-0.22327 0.561149,-0.259253 1.131427,-0.257503 0.782116,0.0024 1.203845,0.185601 1.705496,0.740869 0.630434,0.697814 0.592601,0.110849 0.592601,9.194198 v 8.191968 l -0.227843,0.457222 c -0.409074,0.820905 -1.121435,1.25173 -2.074996,1.254925 -0.448053,0.0015 -0.682836,-0.04967 -1.036489,-0.225902 z"
       id="path1" />
    <path
       style="display:none;fill:#ff0000;stroke-width:0.0883884"
       d="m 15.76146,30.374041 c -0.801356,-0.222286 -1.492843,-0.958275 -1.660897,-1.767784 -0.06552,-0.315618 -0.08794,-2.94951 -0.07122,-8.368333 0.02412,-7.816135 0.02655,-7.912357 0.209588,-8.305497 0.840676,-1.805614 3.414767,-1.832787 4.247373,-0.04484 l 0.206101,0.442585 -0.0011,8.175923 c -0.001,7.759384 -0.0094,8.194229 -0.164286,8.535254 -0.479616,1.055961 -1.679225,1.634032 -2.765586,1.332689 z"
       id="path2" />
    <path
       style="display:none;fill:#ff0000;stroke-width:0.0883884"
       d="m 22.700462,28.547396 c -0.202894,-0.04115 -0.481317,-0.1338 -0.618718,-0.205882 -0.320432,-0.168103 -0.853072,-0.728647 -1.033778,-1.087935 -0.178424,-0.354753 -2.177348,-11.669895 -2.176189,-12.318577 0.0021,-1.198129 1.100322,-2.295468 2.297233,-2.295468 0.805954,0 1.807684,0.644868 2.128175,1.37002 0.178631,0.404177 2.202854,11.753727 2.202854,12.351114 0,0.512936 -0.433286,1.386662 -0.8424,1.698709 -0.587667,0.448236 -1.289953,0.623349 -1.957177,0.488019 z"
       id="path3" />
    <path
       style="display:inline;fill:#ff0000;stroke-width:0.0883884"
       d="m 19.445437,12.256582 c -0.87889,-0.415576 -1.364725,-1.139128 -1.368078,-2.037473 -0.0027,-0.7157409 0.145184,-1.1449223 0.554711,-1.6101704 0.692895,-0.7871696 0.671781,-0.7829029 4.023707,-0.8131182 3.305228,-0.029794 3.592233,0.00711 4.217394,0.5422202 1.231995,1.0545413 1.036505,3.0017524 -0.38527,3.8375424 l -0.413337,0.24298 -3.093593,0.02349 c -3.092114,0.02348 -3.093803,0.02339 -3.535534,-0.185475 z"
       id="path4" />
    <path
       style="display:none;fill:#ff0000;stroke-width:0.0883884"
       d="m 27.473926,28.910786 c -0.438291,-0.110964 -1.061331,-0.512328 -1.318333,-0.849275 -0.480778,-0.630333 -0.470866,-0.47756 -0.472956,-7.290248 -0.0018,-5.92996 0.008,-6.341575 0.15923,-6.673321 0.678643,-1.488728 2.522912,-1.896674 3.69409,-0.81712 0.21912,0.201978 0.484541,0.528119 0.589824,0.724759 0.190384,0.355584 0.191559,0.391312 0.216383,6.578538 0.0282,7.028145 0.04162,6.861812 -0.611132,7.569971 -0.195972,0.212604 -0.522113,0.466035 -0.724759,0.56318 -0.429511,0.205902 -1.132674,0.294702 -1.532347,0.193516 z"
       id="path5" />
    <path
       style="display:none;fill:#ff0000;stroke-width:0.0883884"
       d="M 29.982876,12.280648 C 29.474987,12.156859 29.19438,11.984397 28.793838,11.54986 28.413697,11.137456 28.15169,10.476919 28.15169,9.9309626 c 0,-0.5208728 0.329903,-1.2245901 0.759903,-1.62095 0.72989,-0.6727894 0.678784,-0.6644202 4.057262,-0.6644202 2.863495,0 3.02396,0.00872 3.402952,0.184894 0.943523,0.4385993 1.412486,1.1548823 1.412486,2.1573973 0,0.9957483 -0.464959,1.7224923 -1.368292,2.1386783 -0.429485,0.197874 -0.521668,0.204063 -3.270369,0.219593 -1.555635,0.0088 -2.978875,-0.02069 -3.162756,-0.06551 z"
       id="path6"
       sodipodi:insensitive="true" />
    <path
       style="display:none;fill:#ff0000;stroke-width:0.0883884"
       d="m 19.671143,33.437054 c -0.22055,-0.0791 -0.572842,-0.320781 -0.802814,-0.550753 -0.937327,-0.937328 -0.937146,-2.344891 4.24e-4,-3.282461 0.69267,-0.69267 0.826741,-0.713956 4.302968,-0.683157 2.889957,0.0256 3.003585,0.03311 3.356117,0.221681 0.473776,0.253424 1.034749,0.895291 1.166352,1.334544 0.132827,0.443335 0.132827,1.093414 0,1.536748 -0.131603,0.439254 -0.692576,1.081121 -1.166352,1.334545 -0.35409,0.189403 -0.455112,0.195691 -3.414284,0.212491 -2.59829,0.01475 -3.107538,-0.0035 -3.442411,-0.123638 z"
       id="path7" />
    <path
       style="display:none;fill:#ff0000;stroke-width:0.0883884"
       d="m 30.197594,33.407417 c -1.132988,-0.232342 -1.869127,-1.145549 -1.869127,-2.318718 0,-0.964446 0.490137,-1.703838 1.414213,-2.133397 0.378625,-0.176004 0.540104,-0.184894 3.358758,-0.184894 3.324477,0 3.400467,0.01136 4.04378,0.604342 0.591383,0.545119 0.769287,0.947033 0.769287,1.73795 0,0.767063 -0.169645,1.168274 -0.717617,1.69716 -0.652984,0.630241 -0.715146,0.640948 -3.830285,0.659701 -1.531328,0.0092 -2.957382,-0.01875 -3.169009,-0.06214 z"
       id="path8" />
    <path
       style="display:none;fill:#ff0000;stroke-width:0.0883884"
       d="m 31.793176,28.320665 c -0.252497,-0.125825 -0.599288,-0.392568 -0.770646,-0.592761 -0.300249,-0.350773 -0.572743,-1.034571 -0.572743,-1.437246 0,-0.236839 2.003608,-11.622713 2.123975,-12.069878 0.121808,-0.452519 0.748593,-1.126744 1.275609,-1.372155 1.515247,-0.705593 3.300238,0.462023 3.261127,2.133201 -0.01206,0.515132 -1.863019,11.179243 -2.078775,11.976621 -0.141329,0.522319 -0.933675,1.330766 -1.454404,1.483961 -0.612019,0.180052 -1.2684,0.135263 -1.784143,-0.121743 z"
       id="path9" />
    <path
       style="display:none;fill:#ff0000;stroke-width:0.0883884"
       d="m 39.018047,30.376694 c -0.740829,-0.205947 -1.38099,-0.813072 -1.621809,-1.538112 -0.129833,-0.390888 -0.141803,-1.238438 -0.120269,-8.515445 l 0.02391,-8.08135 0.19546,-0.365438 c 0.449854,-0.84106 1.167863,-1.29707 2.058443,-1.307325 0.915972,-0.01055 1.64354,0.395734 2.100393,1.172883 l 0.241899,0.411491 0.02389,8.15982 c 0.01605,5.482702 -0.0065,8.272629 -0.0687,8.503662 -0.297577,1.105116 -1.697145,1.87564 -2.833224,1.559814 z"
       id="path10" />
    <path
       style="display:none;fill:#ff0000;stroke-width:0.0883884"
       d="m 38.620795,51.320602 c -0.246779,-0.114914 -0.593956,-0.379933 -0.77539,-0.591897 -0.610796,-0.713578 -0.589715,-0.386771 -0.589715,-9.141986 0,-8.948795 -0.03557,-8.474108 0.690805,-9.219846 1.169592,-1.200775 3.114327,-0.848395 3.810059,0.69037 0.176645,0.390689 0.179856,0.542075 0.180914,8.529476 l 0.0011,8.131729 -0.207364,0.445309 c -0.246891,0.530194 -0.882424,1.118175 -1.364827,1.262705 -0.563504,0.168831 -1.244325,0.127542 -1.74556,-0.10586 z"
       id="path11" />
    <path
       style="display:none;fill:#ff0000;stroke-width:0.0883884"
       d=""
       id="path12" />
    <path
       style="display:none;fill:#ff0000;stroke-width:0.0883884"
       d="m 27.198427,49.386393 c -0.437259,-0.140111 -1.078931,-0.753939 -1.31252,-1.255568 l -0.207364,-0.445309 0.0011,-6.319767 c 0.0011,-6.165149 0.0055,-6.329499 0.180914,-6.717515 0.815971,-1.8047 3.296463,-1.890431 4.216644,-0.145737 l 0.240026,0.455096 0.02441,6.222891 c 0.02714,6.918775 0.03528,6.808232 -0.551687,7.493972 -0.452108,0.528186 -1.096706,0.825285 -1.76608,0.813997 -0.29429,-0.005 -0.66573,-0.05089 -0.825423,-0.10206 z"
       id="path13" />
    <path
       style="display:none;fill:#ff0000;stroke-width:0.0883884"
       d="m 34.00433,49.56317 c -0.391473,-0.12544 -1.047271,-0.716337 -1.261875,-1.136995 -0.210843,-0.413287 -2.20428,-11.604071 -2.20428,-12.374417 0,-0.607165 0.166464,-1.028599 0.592601,-1.500282 0.502969,-0.556726 0.92334,-0.738834 1.705497,-0.738834 0.514159,0 0.746005,0.04396 1.033209,0.19589 0.472178,0.249786 0.8843,0.675573 1.089708,1.125838 0.09343,0.204805 0.594779,2.807905 1.191631,6.187184 1.096798,6.209888 1.117058,6.398348 0.762561,7.093219 -0.233935,0.458551 -0.879283,1.023493 -1.319998,1.155534 -0.416275,0.12472 -1.188378,0.121251 -1.589054,-0.0071 z"
       id="path14" />
    <path
       style="display:none;fill:#ff0000;stroke-width:0.0883884"
       d="m 20.54972,49.596961 c -0.625634,-0.205254 -1.167478,-0.665573 -1.455353,-1.236381 -0.321227,-0.636937 -0.289907,-0.915367 0.791206,-7.03364 0.566426,-3.205535 1.088149,-5.96774 1.159386,-6.138233 0.347906,-0.832656 1.031534,-1.329839 1.927412,-1.401752 1.419778,-0.113966 2.520711,0.859088 2.525727,2.232351 0.0023,0.625727 -1.950589,11.788818 -2.142829,12.248913 -0.184627,0.441876 -0.647596,0.942073 -1.073036,1.159321 -0.39243,0.200392 -1.352072,0.294235 -1.732513,0.169421 z"
       id="path15" />
    <path
       style="display:none;fill:#ff0000;stroke-width:0.0883884"
       d="m 19.681677,54.54675 c -1.326129,-0.465747 -1.929844,-2.000346 -1.283858,-3.263471 0.283033,-0.553426 0.818217,-1.018942 1.337113,-1.163053 0.196786,-0.05465 1.520359,-0.09128 3.290234,-0.09106 2.923646,3.66e-4 2.966648,0.003 3.407866,0.208451 1.729069,0.805148 1.796867,3.236823 0.116199,4.167681 l -0.474667,0.2629 -2.96101,0.02196 c -2.700414,0.02003 -3.00245,0.0074 -3.431877,-0.143408 z"
       id="path16"
       sodipodi:insensitive="true" />
    <path
       style="display:none;fill:#ff0000;stroke-width:0.0883884"
       d="m 29.610098,54.327648 c -1.245791,-0.581363 -1.713425,-2.054083 -1.037033,-3.265923 0.279576,-0.500897 0.87055,-0.967073 1.419108,-1.119433 0.188937,-0.05248 1.474855,-0.09048 3.071125,-0.09077 3.098919,-5.56e-4 3.366287,0.03874 4.009406,0.589222 0.527995,0.451944 0.800274,1.064315 0.7989,1.796771 -0.0013,0.706157 -0.200713,1.180417 -0.699969,1.664928 -0.626614,0.608108 -0.791933,0.633283 -4.152234,0.632305 -2.922569,-8.5e-4 -2.974033,-0.004 -3.409303,-0.2071 z"
       id="path17"
       sodipodi:insensitive="true" />
    <path
       style="display:none;fill:#ff0000;stroke-width:0.0883884"
       d="m 45.11391,54.24975 c -0.754492,-0.264683 -1.419958,-0.776496 -1.855275,-1.426902 -0.486197,-0.726426 -0.641119,-1.317823 -0.590987,-2.256024 0.05166,-0.96675 0.322243,-1.592669 0.992116,-2.294961 1.432882,-1.502227 3.755901,-1.52943 5.224154,-0.06118 1.819743,1.819743 1.233742,4.845309 -1.149807,5.936534 -0.74723,0.342093 -1.817887,0.383988 -2.620201,0.10253 z"
       id="path18" />
  </g>
</svg>
