<?xml version="1.0" encoding="UTF-8" standalone="no"?>
<svg width="64px" height="64px" version="1.1" xmlns="http://www.w3.org/2000/svg">
  <g style="display:inline">
    <rect style="fill:#0a1404;fill-opacity:1;stroke:#0a1404;stroke-width:2.91463;stroke-linecap:butt;stroke-linejoin:miter;stroke-miterlimit:4;stroke-dasharray:none;stroke-opacity:1" width="38.887859" height="48.698963" x="12.420071" y="9.8861675" rx="3.4471457" ry="2.7400389"/>
    <rect style="fill:#152b09;fill-opacity:1;stroke:#162b09;stroke-width:2.91463;stroke-linecap:butt;stroke-linejoin:miter;stroke-miterlimit:4;stroke-dasharray:none;stroke-opacity:1" width="38.887859" height="48.698963" x="12.420071" y="5.8861685" rx="3.4471457" ry="2.7400389"/>
    <g style="fill:#ff0000;fill-opacity:1">
      <rect ry="2.3864853" y="7.6320295" x="18" height="4.7729707" width="20" style="fill:#ff0000;fill-opacity:1;stroke:none"/>
      <rect transform="rotate(90)" ry="2.3864853" y="-18.77297" x="10.5" height="4.7729707" width="20" style="fill:#ff0000;fill-opacity:1;stroke:none"/>
      <rect transform="rotate(90)" ry="2.3864853" y="-41.999969" x="10.5" height="4.7729707" width="20" style="fill:#ff0000;fill-opacity:1;stroke:none"/>
      <rect ry="2.3864853" y="28.72703" x="18" height="4.7729707" width="20" style="fill:#ff0000;fill-opacity:1;stroke:none"/>
      <rect transform="rotate(90)" ry="2.3864999" y="-18.772999" x="31.6" height="4.7729998" width="20" style="fill:#ff0000;fill-opacity:1;stroke:none"/>
      <rect ry="2.3864853" y="49.727028" x="18" height="4.7729707" width="20" style="fill:#ff0000;fill-opacity:1;stroke:none"/>
      <rect transform="rotate(90)" ry="2.3864853" y="-41.999969" x="31.6" height="4.7729707" width="20" style="fill:#ff0000;fill-opacity:1;stroke:none"/>
      <ellipse transform="matrix(1.000051,0,0,1.0633454,55.922321,31.55982)" style="fill:#ff0000;fill-opacity:1;stroke:none" cx="-9.6343298" cy="18.082253" rx="3.7123106" ry="3.4913397"/>
    </g>
  </g>
</svg>
