<?xml version="1.0" encoding="utf-8"?>
<svg xmlns="http://www.w3.org/2000/svg" viewBox="0 0 512 512" width="800" height="800">
  <path fill="#DE2910" d="M473.655,88.275H38.345C17.167,88.275,0,105.442,0,126.62V385.38c0,21.177,17.167,38.345,38.345,38.345h435.31c21.177,0,38.345-17.167,38.345-38.345V126.62C512,105.442,494.833,88.275,473.655,88.275z"/>
  <g fill="#FFDE00">
    <polygon points="152.168,186.89 128.553,169.744 104.938,186.89 113.96,159.393 90.345,142.248 117.531,142.248 128.553,114.751 139.575,142.248 166.761,142.248 143.146,159.393"/>
    <polygon points="202.483,137.655 196.673,129.62 188.002,133.413 192.364,125.069 186.554,117.034 195.634,119.342 199.996,110.999 200.627,120.407 209.707,122.715 201.036,126.508"/>
    <polygon points="227.583,168.848 218.68,164.558 212.387,172.224 213.56,162.847 204.657,158.557 213.876,156.731 215.049,147.354 219.794,155.759 229.013,153.933 222.72,161.599"/>
    <polygon points="227.583,210.462 222.72,218.128 229.013,225.794 219.794,223.968 215.049,232.373 213.876,222.996 204.657,221.17 213.56,216.88 212.387,207.503 218.68,215.169"/>
    <polygon points="202.483,241.655 201.036,252.802 209.707,256.595 200.627,258.903 199.996,268.311 195.634,259.968 186.554,262.276 192.364,254.241 188.002,245.897 196.673,249.69"/>
  </g>
</svg>
