<?xml version="1.0" encoding="utf-8"?>
<svg xmlns="http://www.w3.org/2000/svg" viewBox="0 0 512 512" width="800" height="800">
  <path fill="#F0F0F0" d="M473.655,88.275H38.345C17.167,88.275,0,105.442,0,126.62V385.38c0,21.177,17.167,38.345,38.345,38.345h435.31c21.177,0,38.345-17.167,38.345-38.345V126.62C512,105.442,494.833,88.275,473.655,88.275z"/>
  <path fill="#002395" d="M170.667,88.275H38.345C17.167,88.275,0,105.442,0,126.62V385.38c0,21.177,17.167,38.345,38.345,38.345h132.322V88.275z"/>
  <path fill="#ED2939" d="M473.655,88.275H341.333v335.45h132.322c21.177,0,38.345-17.167,38.345-38.345V126.62C512,105.442,494.833,88.275,473.655,88.275z"/>
</svg>
