<?xml version="1.0" encoding="UTF-8" standalone="no"?>
<svg width="64px" height="64px" version="1.1" xmlns="http://www.w3.org/2000/svg">
  <g>
    <path style="fill:#262626;fill-opacity:1;stroke:none" d="M 53.530273,31.969726 A 17.794409,22 0 0 0 35.735351,9.9697265 a 17.794409,22 0 0 0 -0.8125,0.03516 c -0.117116,-0.00968 -0.229911,-0.03516 -0.349609,-0.03516 H 14.69043 c -2.337806,0 -4.220703,1.8828985 -4.220703,4.2207035 v 35.558593 c 0,2.337806 1.882897,4.220703 4.220703,4.220703 h 19.882812 c 0.151144,0 0.294457,-0.02957 0.441406,-0.04492 a 17.794409,22 0 0 0 0.720703,0.04492 17.794409,22 0 0 0 17.794922,-22 z"/>
    <path style="fill:#fcfcfc;fill-opacity:1;stroke:none" d="m 50.59375,31.969726 a 15.367897,19 0 0 0 -15.367188,-18.999999 15.367897,19 0 0 0 -0.703125,0.03125 c -0.100905,-0.0083 -0.197655,-0.03125 -0.300781,-0.03125 H 17.050781 c -2.019013,0 -3.644531,1.625518 -3.644531,3.64453 v 30.710938 c 0,2.019013 1.625518,3.644531 3.644531,3.644531 h 17.171875 c 0.131225,0 0.255251,-0.02567 0.382813,-0.03906 a 15.367897,19 0 0 0 0.621093,0.03906 15.367897,19 0 0 0 15.367188,-19 z"/>
  </g>
</svg>
