<?xml version="1.0" encoding="UTF-8" standalone="no"?>
<!-- Created with Inkscape (http://www.inkscape.org/) -->

<svg
   width="64px"
   height="64px"
   id="svg2985"
   version="1.1"
   inkscape:version="1.2 (dc2aedaf03, 2022-05-15)"
   sodipodi:docname="and.svg"
   inkscape:export-filename="/home/davi/git/wiRedPanda/app/resources/basic/and.png"
   inkscape:export-xdpi="90"
   inkscape:export-ydpi="90"
   xmlns:inkscape="http://www.inkscape.org/namespaces/inkscape"
   xmlns:sodipodi="http://sodipodi.sourceforge.net/DTD/sodipodi-0.dtd"
   xmlns="http://www.w3.org/2000/svg"
   xmlns:svg="http://www.w3.org/2000/svg"
   xmlns:rdf="http://www.w3.org/1999/02/22-rdf-syntax-ns#"
   xmlns:cc="http://creativecommons.org/ns#"
   xmlns:dc="http://purl.org/dc/elements/1.1/">
  <defs
     id="defs2987">
    <linearGradient
       id="linearGradient3765">
      <stop
         style="stop-color:#0c0000;stop-opacity:1;"
         offset="0"
         id="stop3767" />
      <stop
         style="stop-color:#000000;stop-opacity:0;"
         offset="1"
         id="stop3769" />
    </linearGradient>
    <filter
       id="filter3987"
       inkscape:label="Glow"
       inkscape:menu="Shadows and Glows"
       inkscape:menu-tooltip="Glow of object's own color at the edges"
       color-interpolation-filters="sRGB">
      <feGaussianBlur
         id="feGaussianBlur3989"
         stdDeviation="5"
         result="result91" />
      <feComposite
         id="feComposite3991"
         in2="result91"
         in="SourceGraphic"
         operator="over" />
    </filter>
  </defs>
  <sodipodi:namedview
     id="base"
     pagecolor="#ffffff"
     bordercolor="#666666"
     borderopacity="1.0"
     inkscape:pageopacity="0.0"
     inkscape:pageshadow="2"
     inkscape:zoom="8.0000004"
     inkscape:cx="27.687499"
     inkscape:cy="34.937498"
     inkscape:current-layer="svg2985"
     showgrid="true"
     inkscape:document-units="px"
     inkscape:grid-bbox="true"
     showguides="true"
     inkscape:guide-bbox="true"
     inkscape:window-width="1350"
     inkscape:window-height="1230"
     inkscape:window-x="1092"
     inkscape:window-y="633"
     inkscape:window-maximized="0"
     inkscape:showpageshadow="2"
     inkscape:pagecheckerboard="0"
     inkscape:deskcolor="#d1d1d1" />
  <metadata
     id="metadata2990">
    <rdf:RDF>
      <cc:Work
         rdf:about="">
        <dc:format>image/svg+xml</dc:format>
        <dc:type
           rdf:resource="http://purl.org/dc/dcmitype/StillImage" />
        <dc:title />
      </cc:Work>
    </rdf:RDF>
  </metadata>
  <g
     id="layer1"
     inkscape:label="Layer 1"
     inkscape:groupmode="layer">
    <path
       style="fill:#262626;fill-opacity:1;stroke:none"
       d="M 53.530273,31.969726 A 17.794409,22 0 0 0 35.735351,9.9697265 a 17.794409,22 0 0 0 -0.8125,0.03516 c -0.117116,-0.00968 -0.229911,-0.03516 -0.349609,-0.03516 H 14.69043 c -2.337806,0 -4.220703,1.8828985 -4.220703,4.2207035 v 35.558593 c 0,2.337806 1.882897,4.220703 4.220703,4.220703 h 19.882812 c 0.151144,0 0.294457,-0.02957 0.441406,-0.04492 a 17.794409,22 0 0 0 0.720703,0.04492 17.794409,22 0 0 0 17.794922,-22 z"
       id="rect3901-8" />
    <path
       style="fill:#fcfcfc;fill-opacity:1;stroke:none"
       d="m 50.59375,31.969726 a 15.367897,19 0 0 0 -15.367188,-18.999999 15.367897,19 0 0 0 -0.703125,0.03125 c -0.100905,-0.0083 -0.197655,-0.03125 -0.300781,-0.03125 H 17.050781 c -2.019013,0 -3.644531,1.625518 -3.644531,3.64453 v 30.710938 c 0,2.019013 1.625518,3.644531 3.644531,3.644531 h 17.171875 c 0.131225,0 0.255251,-0.02567 0.382813,-0.03906 a 15.367897,19 0 0 0 0.621093,0.03906 15.367897,19 0 0 0 15.367188,-19 z"
       id="rect3901-8-1"
       inkscape:connector-curvature="0" />
  </g>
</svg>
