<?xml version="1.0" encoding="UTF-8" standalone="no"?>
<svg width="64px" height="64px" id="svg3852" version="1.1" xmlns="http://www.w3.org/2000/svg">
  <style id="style2305">
    .measure-arrow
{
}
.measure-label
{

}
.measure-line
{
}
  </style>
  <g id="layer1" style="display:inline">
    <path style="opacity:0.98;fill:#4e4e4e;fill-opacity:1;stroke:none;stroke-width:2.15649;stroke-linecap:round;stroke-linejoin:round;stroke-miterlimit:4;stroke-dasharray:none;stroke-opacity:1" d="M 6.7045463,7.1098883 H 57.295459 c 0.66732,0 1.20454,0.661444 1.20454,1.483058 V 59.01694 c 0,0.82162 -0.53722,1.48306 -1.20454,1.48306 H 6.7045463 c -0.667318,0 -1.204546,-0.66144 -1.204546,-1.48306 V 8.5929463 c 0,-0.821614 0.537228,-1.483058 1.204546,-1.483058 z" id="rect4704"/>
    <path style="opacity:0.98;fill:#7e7e7e;fill-opacity:1;stroke:none;stroke-width:2.15649;stroke-linecap:round;stroke-linejoin:round;stroke-miterlimit:4;stroke-dasharray:none;stroke-opacity:1" d="m 6.7039353,3.5000013 c -0.667318,0 -1.203932,0.661954 -1.203932,1.483568 V 55.40795 c 0,0.82161 0.536614,1.48115 1.203932,1.48115 H 57.296069 c 0.66732,0 1.20393,-0.65954 1.20393,-1.48115 V 4.9835693 c 0,-0.821614 -0.53661,-1.483568 -1.20393,-1.483568 H 43.521738 v 2.478261 H 20.478264 v -2.478261 z" id="path4228" class="UnoptimicedTransforms"/>
    <path style="opacity:1;fill:#4e4e4e;fill-opacity:1;stroke:none;stroke-width:2;stroke-linecap:round;stroke-linejoin:round;stroke-miterlimit:4;stroke-dasharray:none;stroke-opacity:1" d="M 32.000002,17.476214 A 11.521739,12.391304 0 0 1 20.478263,5.0849103 H 43.521739 A 11.521739,12.391304 0 0 1 32.000002,17.476214 Z" id="path4727"/>
    <path style="opacity:1;fill:#4e4e4e;fill-opacity:1;stroke:none;stroke-width:2;stroke-linecap:round;stroke-linejoin:round;stroke-miterlimit:4;stroke-dasharray:none;stroke-opacity:1" d="m 18.177689,29.867263 a 6.195652,5.7608695 0 0 1 -6.195652,-5.76087 6.195652,5.7608695 0 0 1 6.195652,-5.76087 6.195652,5.7608695 0 0 1 6.195652,5.76087 6.195652,5.7608695 0 0 1 -6.195652,5.76087 z" id="path4735"/>
  </g>
</svg>
