<?xml version="1.0" encoding="UTF-8" standalone="no"?>
<!-- Created with Inkscape (http://www.inkscape.org/) -->

<svg
   width="64px"
   height="64px"
   id="svg2985"
   version="1.1"
   inkscape:version="1.2 (dc2aedaf03, 2022-05-15)"
   sodipodi:docname="nand.svg"
   inkscape:export-filename="/home/davi/git/wiRedPanda/app/resources/basic/nand.png"
   inkscape:export-xdpi="90"
   inkscape:export-ydpi="90"
   xmlns:inkscape="http://www.inkscape.org/namespaces/inkscape"
   xmlns:sodipodi="http://sodipodi.sourceforge.net/DTD/sodipodi-0.dtd"
   xmlns="http://www.w3.org/2000/svg"
   xmlns:svg="http://www.w3.org/2000/svg"
   xmlns:rdf="http://www.w3.org/1999/02/22-rdf-syntax-ns#"
   xmlns:cc="http://creativecommons.org/ns#"
   xmlns:dc="http://purl.org/dc/elements/1.1/">
  <defs
     id="defs2987">
    <filter
       id="filter3987"
       inkscape:label="Glow"
       inkscape:menu="Shadows and Glows"
       inkscape:menu-tooltip="Glow of object's own color at the edges"
       color-interpolation-filters="sRGB">
      <feGaussianBlur
         id="feGaussianBlur3989"
         stdDeviation="5"
         result="result91" />
      <feComposite
         id="feComposite3991"
         in2="result91"
         in="SourceGraphic"
         operator="over" />
    </filter>
  </defs>
  <sodipodi:namedview
     id="base"
     pagecolor="#ffffff"
     bordercolor="#666666"
     borderopacity="1.0"
     inkscape:pageopacity="0.0"
     inkscape:pageshadow="2"
     inkscape:zoom="7.9999996"
     inkscape:cx="33.687502"
     inkscape:cy="33.687502"
     inkscape:current-layer="layer1"
     showgrid="true"
     inkscape:document-units="px"
     inkscape:grid-bbox="true"
     showguides="true"
     inkscape:guide-bbox="true"
     inkscape:window-width="1350"
     inkscape:window-height="1230"
     inkscape:window-x="494"
     inkscape:window-y="494"
     inkscape:window-maximized="0"
     inkscape:showpageshadow="2"
     inkscape:pagecheckerboard="0"
     inkscape:deskcolor="#d1d1d1" />
  <metadata
     id="metadata2990">
    <rdf:RDF>
      <cc:Work
         rdf:about="">
        <dc:format>image/svg+xml</dc:format>
        <dc:type
           rdf:resource="http://purl.org/dc/dcmitype/StillImage" />
        <dc:title />
      </cc:Work>
    </rdf:RDF>
  </metadata>
  <g
     id="layer1"
     inkscape:label="Layer 1"
     inkscape:groupmode="layer"
     style="display:inline">
    <path
       style="fill:#262626;fill-opacity:1;stroke:none"
       d="m 48.710547,32.15 a 17.794409,22 0 0 0 -17.794922,-22 17.794409,22 0 0 0 -0.8125,0.03516 C 29.986009,10.17548 29.873213,10.15 29.753516,10.15 H 9.8707031 c -2.337805,0 -4.220703,1.882898 -4.220703,4.220703 v 35.558594 c 0,2.337805 1.882898,4.220703 4.220703,4.220703 H 29.753516 c 0.151144,0 0.294457,-0.02957 0.441406,-0.04492 a 17.794409,22 0 0 0 0.720703,0.04492 17.794409,22 0 0 0 17.794922,-22 z"
       id="rect3901-8" />
    <circle
       style="fill:#262626;fill-opacity:1;stroke:none"
       id="path4140"
       cx="32.150002"
       cy="-52.349998"
       r="6"
       transform="rotate(90)" />
    <circle
       style="fill:#fcfcfc;fill-opacity:1;stroke:none"
       id="path4140-7"
       cx="32.150002"
       cy="-52.605026"
       r="4"
       transform="rotate(90)" />
    <path
       style="fill:#fcfcfc;fill-opacity:1;stroke:none"
       d="m 45.774132,32.15 a 15.367898,19 0 0 0 -15.367404,-19 15.367898,19 0 0 0 -0.700955,0.03092 C 29.604095,13.172478 29.506645,13.15 29.402713,13.15 H 12.229319 c -2.019014,0 -3.6429039,1.625951 -3.6429039,3.644965 v 30.71007 c 0,2.019014 1.6238899,3.644965 3.6429039,3.644965 h 17.173394 c 0.130807,0 0.254233,-0.02586 0.381401,-0.03917 a 15.367898,19 0 0 0 0.622614,0.03917 15.367898,19 0 0 0 15.367404,-19 z"
       id="rect3901-8-1"
       inkscape:connector-curvature="0" />
  </g>
</svg>
