<?xml version="1.0" encoding="UTF-8" standalone="no"?>
<svg width="64px" height="64px" version="1.1" xmlns="http://www.w3.org/2000/svg">
  <g style="display:inline">
    <path style="fill:#262626;fill-opacity:1;stroke:none" d="m 48.710547,32.15 a 17.794409,22 0 0 0 -17.794922,-22 17.794409,22 0 0 0 -0.8125,0.03516 C 29.986009,10.17548 29.873213,10.15 29.753516,10.15 H 9.8707031 c -2.337805,0 -4.220703,1.882898 -4.220703,4.220703 v 35.558594 c 0,2.337805 1.882898,4.220703 4.220703,4.220703 H 29.753516 c 0.151144,0 0.294457,-0.02957 0.441406,-0.04492 a 17.794409,22 0 0 0 0.720703,0.04492 17.794409,22 0 0 0 17.794922,-22 z"/>
    <circle style="fill:#262626;fill-opacity:1;stroke:none" cx="32.150002" cy="-52.349998" r="6" transform="rotate(90)"/>
    <circle style="fill:#fcfcfc;fill-opacity:1;stroke:none" cx="32.150002" cy="-52.605026" r="4" transform="rotate(90)"/>
    <path style="fill:#fcfcfc;fill-opacity:1;stroke:none" d="m 45.774132,32.15 a 15.367898,19 0 0 0 -15.367404,-19 15.367898,19 0 0 0 -0.700955,0.03092 C 29.604095,13.172478 29.506645,13.15 29.402713,13.15 H 12.229319 c -2.019014,0 -3.6429039,1.625951 -3.6429039,3.644965 v 30.71007 c 0,2.019014 1.6238899,3.644965 3.6429039,3.644965 h 17.173394 c 0.130807,0 0.254233,-0.02586 0.381401,-0.03917 a 15.367898,19 0 0 0 0.622614,0.03917 15.367898,19 0 0 0 15.367404,-19 z"/>
  </g>
</svg>
