<?xml version="1.0" encoding="UTF-8" standalone="no"?>
<svg width="64px" height="64px" version="1.1" xmlns="http://www.w3.org/2000/svg">
  <g style="display:inline">
    <circle style="fill:#262626;fill-opacity:1;stroke:none" cx="31.967302" cy="-52.0327" r="6" transform="rotate(90)"/>
    <circle style="fill:#fcfcfc;fill-opacity:1;stroke:none" cx="31.967302" cy="-52.287727" r="4" transform="rotate(90)"/>
    <path style="fill:#ffffff;fill-opacity:1;stroke:#262626;stroke-width:3;stroke-linecap:round;stroke-linejoin:round;stroke-miterlimit:4;stroke-dasharray:none;stroke-opacity:1" d="M 46.160351,31.309099 C 42.032077,18.744864 31.717001,14.28675 26.215038,12.58449 22.776312,11.733358 12.460896,11.732927 7.6466791,11.732927 14.216569,16.524696 17.552762,23.1071 17.963085,31.309099 h 1.445313 c -0.118544,0.226596 -0.189453,0.477376 -0.189453,0.744141 0,0.270622 0.07352,0.522847 0.195312,0.751953 h -1.451172 c -0.410323,8.201936 -3.746515,14.784439 -10.3164059,19.576171 4.8142179,0 15.1296319,-0.000438 18.5683589,-0.851562 5.501964,-1.702248 15.817038,-6.160471 19.945313,-18.724609 h -0.507813 c 0.121736,-0.22906 0.195313,-0.481402 0.195313,-0.751953 0,-0.266705 -0.07096,-0.517584 -0.189453,-0.744141 z"/>
    <rect style="opacity:1;fill:#ffffff;fill-opacity:1;stroke:none;stroke-width:3;stroke-linecap:round;stroke-linejoin:round;stroke-miterlimit:4;stroke-dasharray:none;stroke-opacity:1" width="8.325182" height="3.3087261" x="28.118156" y="-22.679903" rx="0" ry="0" transform="rotate(90)"/>
    <ellipse style="opacity:1;fill:#ffffff;fill-opacity:1;stroke:none;stroke-width:3;stroke-linecap:round;stroke-linejoin:round;stroke-miterlimit:4;stroke-dasharray:none;stroke-opacity:1" cx="32.067284" cy="-41.171413" rx="3.3620927" ry="3.4688256" transform="rotate(90)"/>
  </g>
</svg>
