<?xml version="1.0" encoding="UTF-8" standalone="no"?>
<svg width="64px" height="64px" version="1.1" xmlns="http://www.w3.org/2000/svg">
  <g style="display:inline">
    <circle style="fill:#262626;fill-opacity:1;stroke:none" cx="31.757206" cy="-51.941025" r="5.2235546" transform="rotate(90)"/>
    <circle style="fill:#fcfcfc;fill-opacity:1;stroke:none" cx="31.757206" cy="-51.941025" r="3.4823699" transform="rotate(90)"/>
    <path style="fill:#ffffff;fill-opacity:1;stroke:#262626;stroke-width:2.61178;stroke-linecap:round;stroke-linejoin:round;stroke-miterlimit:4;stroke-dasharray:none;stroke-opacity:1" d="M 41.670753,31.184178 C 38.076709,20.24585 29.096482,16.36465 24.306514,14.882675 21.312785,14.141686 12.332262,14.141311 8.1410409,14.141311 13.860737,18.312989 16.765202,24.04358 17.122426,31.184178 h 1.258279 c -0.103204,0.197273 -0.164937,0.4156 -0.164937,0.647844 0,0.235601 0.06401,0.455187 0.170037,0.654645 h -1.263379 c -0.357224,7.140543 -3.261688,12.871221 -8.9813851,17.042866 4.1912221,0 13.1717431,-0.000381 16.1654731,-0.741363 4.789968,-1.481964 13.770194,-5.36326 17.364239,-16.301503 h -0.442098 c 0.105982,-0.199418 0.170038,-0.419105 0.170038,-0.654645 0,-0.232191 -0.06178,-0.450605 -0.164936,-0.647844 z"/>
    <rect style="opacity:1;fill:#ffffff;fill-opacity:1;stroke:none;stroke-width:3;stroke-linecap:round;stroke-linejoin:round;stroke-miterlimit:4;stroke-dasharray:none;stroke-opacity:1" width="7.2478404" height="2.8805521" x="28.406168" y="-21.228851" rx="0" ry="0" transform="rotate(90)"/>
    <ellipse style="opacity:1;fill:#ffffff;fill-opacity:1;stroke:none;stroke-width:3;stroke-linecap:round;stroke-linejoin:round;stroke-miterlimit:4;stroke-dasharray:none;stroke-opacity:1" cx="31.84425" cy="-36.291626" rx="2.9270127" ry="3.0199335" transform="rotate(90)"/>
    <path style="fill:#ffffff;fill-opacity:1;stroke:#262626;stroke-width:2.61178;stroke-linecap:round;stroke-linejoin:round;stroke-miterlimit:4;stroke-dasharray:none;stroke-opacity:1" d="M 46.459012,31.184178 C 42.864967,20.24585 33.88474,16.36465 29.094773,14.882675 26.101044,14.141686 17.12052,14.141311 12.929299,14.141311 c 5.719697,4.171678 8.624161,9.902269 8.981386,17.042867 h 1.258278 c -0.103203,0.197273 -0.164936,0.4156 -0.164936,0.647844 0,0.235601 0.06401,0.455187 0.170037,0.654645 h -1.263379 c -0.357225,7.140543 -3.261688,12.871221 -8.981386,17.042866 4.191222,0 13.171744,-0.000381 16.165474,-0.741363 4.789968,-1.481964 13.770194,-5.36326 17.364239,-16.301503 h -0.442099 c 0.105983,-0.199418 0.170038,-0.419105 0.170038,-0.654645 0,-0.232191 -0.06178,-0.450605 -0.164936,-0.647844 z"/>
    <rect style="opacity:1;fill:#ffffff;fill-opacity:1;stroke:none;stroke-width:3;stroke-linecap:round;stroke-linejoin:round;stroke-miterlimit:4;stroke-dasharray:none;stroke-opacity:1" width="7.2478404" height="2.8805521" x="28.406168" y="-26.017109" rx="0" ry="0" transform="rotate(90)"/>
    <ellipse style="opacity:1;fill:#ffffff;fill-opacity:1;stroke:none;stroke-width:3;stroke-linecap:round;stroke-linejoin:round;stroke-miterlimit:4;stroke-dasharray:none;stroke-opacity:1" cx="31.84425" cy="-42.115681" rx="2.9270127" ry="3.0199335" transform="rotate(90)"/>
  </g>
</svg>
