<?xml version="1.0" encoding="UTF-8" standalone="no"?>
<svg width="64px" height="64px" version="1.1" xmlns="http://www.w3.org/2000/svg">
  <g style="display:inline">
    <path style="fill:#ffffff;fill-opacity:1;stroke:#262626;stroke-width:3;stroke-linecap:round;stroke-linejoin:round;stroke-miterlimit:4;stroke-dasharray:none;stroke-opacity:1" d="M 48.346553,31.245301 C 44.218279,18.681066 33.903203,14.222952 28.40124,12.520692 24.962514,11.66956 14.647098,11.669129 9.8328811,11.669129 16.402771,16.460898 19.738964,23.043302 20.149287,31.245301 H 21.5946 c -0.118544,0.226596 -0.189453,0.477376 -0.189453,0.744141 0,0.270622 0.07352,0.522847 0.195312,0.751953 h -1.451172 c -0.410323,8.201936 -3.746515,14.784439 -10.3164059,19.576171 4.8142179,0 15.1296319,-0.000438 18.5683589,-0.851562 5.501964,-1.702248 15.817038,-6.160471 19.945313,-18.724609 H 47.83874 c 0.121736,-0.22906 0.195313,-0.481402 0.195313,-0.751953 0,-0.266705 -0.07096,-0.517584 -0.189453,-0.744141 z"/>
    <rect style="opacity:1;fill:#ffffff;fill-opacity:1;stroke:none;stroke-width:3;stroke-linecap:round;stroke-linejoin:round;stroke-miterlimit:4;stroke-dasharray:none;stroke-opacity:1" width="8.325182" height="3.3087261" x="28.054358" y="-24.866104" rx="0" ry="0" transform="rotate(90)"/>
    <ellipse style="opacity:1;fill:#ffffff;fill-opacity:1;stroke:none;stroke-width:3;stroke-linecap:round;stroke-linejoin:round;stroke-miterlimit:4;stroke-dasharray:none;stroke-opacity:1" cx="32.003487" cy="-43.357616" rx="3.3620927" ry="3.4688256" transform="rotate(90)"/>
    <path style="fill:#ffffff;fill-opacity:1;stroke:#262626;stroke-width:3;stroke-linecap:round;stroke-linejoin:round;stroke-miterlimit:4;stroke-dasharray:none;stroke-opacity:1" d="M 54.346553,31.245301 C 50.218279,18.681066 39.903203,14.222952 34.40124,12.520692 30.962514,11.66956 20.647098,11.669129 15.832881,11.669129 c 6.56989,4.791769 9.906083,11.374173 10.316406,19.576172 H 27.5946 c -0.118544,0.226596 -0.189453,0.477376 -0.189453,0.744141 0,0.270622 0.07352,0.522847 0.195312,0.751953 h -1.451172 c -0.410323,8.201936 -3.746515,14.784439 -10.316406,19.576171 4.814218,0 15.129632,-0.000438 18.568359,-0.851562 5.501964,-1.702248 15.817038,-6.160471 19.945313,-18.724609 H 53.83874 c 0.121736,-0.22906 0.195313,-0.481402 0.195313,-0.751953 0,-0.266705 -0.07096,-0.517584 -0.189453,-0.744141 z"/>
    <rect style="opacity:1;fill:#ffffff;fill-opacity:1;stroke:none;stroke-width:3;stroke-linecap:round;stroke-linejoin:round;stroke-miterlimit:4;stroke-dasharray:none;stroke-opacity:1" width="8.325182" height="3.3087261" x="28.054358" y="-30.866104" rx="0" ry="0" transform="rotate(90)"/>
    <ellipse style="opacity:1;fill:#ffffff;fill-opacity:1;stroke:none;stroke-width:3;stroke-linecap:round;stroke-linejoin:round;stroke-miterlimit:4;stroke-dasharray:none;stroke-opacity:1" cx="32.003487" cy="-49.357616" rx="3.3620927" ry="3.4688256" transform="rotate(90)"/>
  </g>
</svg>
