<?xml version="1.0" encoding="UTF-8" standalone="no"?>
<svg xmlns="http://www.w3.org/2000/svg" width="64px" height="64px" version="1.1">
  <g>
    <path style="fill:none;fill-rule:evenodd;stroke:#000000;stroke-width:1px;stroke-linecap:butt;stroke-linejoin:miter;stroke-opacity:1" d="M 6.9826792,68.507805 C 25.10229,6.8127416 25.10229,6.8127416 25.10229,6.8127416"/>
    <path style="fill:none;fill-rule:evenodd;stroke:#000000;stroke-width:1px;stroke-linecap:butt;stroke-linejoin:miter;stroke-opacity:1" d="M 56.922093,68.684582 40.03992,6.7243533 v 0"/>
    <path style="fill:none;fill-rule:evenodd;stroke:#000000;stroke-width:1px;stroke-linecap:butt;stroke-linejoin:miter;stroke-opacity:1" d="M 25.10229,6.8127416 40.03992,6.7243533"/>
    <path style="fill:none;fill-rule:evenodd;stroke:#000000;stroke-width:1px;stroke-linecap:butt;stroke-linejoin:miter;stroke-opacity:1" d="M 30.878906,14.832749 15.115234,68.50853 Z"/>
    <path style="fill:none;fill-rule:evenodd;stroke:#000000;stroke-width:1px;stroke-linecap:butt;stroke-linejoin:miter;stroke-opacity:1" d="M 33.115234,15.010483 48.878906,68.684311 Z"/>
    <path style="fill:none;fill-rule:evenodd;stroke:#000000;stroke-width:1px;stroke-linecap:butt;stroke-linejoin:miter;stroke-opacity:1" d="M 24.306795,36.77639 H 39.597978"/>
    <path style="fill:none;fill-rule:evenodd;stroke:#000000;stroke-width:1px;stroke-linecap:butt;stroke-linejoin:miter;stroke-opacity:1" d="M 6.9826792,68.507805 H 15.114408"/>
    <path style="fill:none;fill-rule:evenodd;stroke:#000000;stroke-width:1px;stroke-linecap:butt;stroke-linejoin:miter;stroke-opacity:1" d="M 56.922093,68.684582 H 48.878754"/>
    <path style="fill:none;fill-rule:evenodd;stroke:#000000;stroke-width:1px;stroke-linecap:butt;stroke-linejoin:miter;stroke-opacity:1" d="m 30.878469,14.8331 c 2.090383,0 2.090383,0 2.090383,0"/>
    <path style="fill:none;fill-rule:evenodd;stroke:#000000;stroke-width:1px;stroke-linecap:butt;stroke-linejoin:miter;stroke-opacity:1" d="M 22.030795,44.81973 H 41.807687"/>
    <path style="fill:#4e4e4e;fill-opacity:1;stroke-width:0.88388342;stroke-miterlimit:4;stroke-dasharray:none" d="m 39.630859,7.2526704 -7.033203,0.056641 c -3.867927,0.031314 -7.051119,0.074558 -7.074218,0.097656 -0.04598,0.045984 -17.7871099,60.4187968 -17.7871099,60.5292968 0,0.03744 1.5719502,0.06641 3.4921879,0.06641 1.920237,0 3.490234,-0.01519 3.490234,-0.03516 0,-0.02654 15.320322,-52.232905 15.609375,-53.191406 0.03588,-0.118989 0.08941,-0.133595 0.255859,-0.07031 0.187242,0.07119 0.213812,0.05194 0.238282,-0.160156 l 0.02734,-0.238281 1.083985,-0.02539 1.082031,-0.02344 v 0.355468 c 0,0.378716 0.03675,0.404543 0.386719,0.271485 0.179031,-0.06807 0.23159,-0.05512 0.267578,0.06641 0.02455,0.08289 3.528654,12.023999 7.787109,26.535156 4.258455,14.511156 7.761951,26.453989 7.78711,26.539063 0.04255,0.14388 0.287309,0.154297 3.488281,0.154297 2.323789,0 3.441406,-0.02972 3.441406,-0.0918 0,-0.05057 -3.675551,-13.584012 -8.167969,-30.074219 C 43.513444,21.524185 39.791345,7.8558981 39.734375,7.6413422 Z"/>
    <path style="fill:#4e4e4e;fill-opacity:1;stroke-width:0.88388342;stroke-miterlimit:4;stroke-dasharray:none" d="m 24.830078,37.332748 -0.636719,2.1875 c -0.350541,1.203186 -0.810954,2.775137 -1.023437,3.492188 l -0.386719,1.302734 h 9.1875 c 8.709389,0 9.186498,-0.0077 9.142578,-0.154297 -0.02548,-0.08507 -0.409358,-1.38751 -0.851562,-2.894531 -0.442204,-1.507021 -0.881816,-3.009749 -0.978516,-3.33789 L 39.107422,37.332748 H 31.96875 Z m 8.900391,1.498047 h 0.474609 0.341797 0.126953 c 0.21875,0 0.21875,0.220703 0,0.220703 h -0.126953 -0.341797 -0.474609 c -0.21875,0 -0.21875,-0.220703 0,-0.220703 z m -4.861328,1.283203 c 0.0847,0 0.16922,-0.0018 0.253906,0 0.09179,0.0019 0.183878,0.0024 0.275391,0.0098 0.755144,0.06065 -0.159577,0.01002 0.546874,0.0625 0.208581,0.01551 0.292759,0.01018 0.501954,0.0078 0.207801,-0.0041 0.415201,-0.01735 0.623046,-0.01953 0.02016,-0.000211 0.05504,-0.0175 0.06055,0.002 0.02022,0.07108 0.000907,0.146808 0.002,0.220704 0.0027,0.218733 -0.06212,-0.435581 -0.0332,-0.21875 0.0097,0.07251 0.0375,0.146054 0.0293,0.21875 -0.002,0.01771 -0.03687,-0.0021 -0.05469,-0.002 -0.20851,0.0022 -0.416532,0.01557 -0.625,0.01953 -0.224265,0.0023 -0.303444,0.0069 -0.527344,-0.0098 -0.817099,-0.06094 0.294988,0.0066 -0.53125,-0.06055 -0.17756,-0.01444 -0.343828,-0.0098 -0.521484,-0.0098 -0.21875,0 -0.21875,-0.220704 0,-0.220704 z"/>
    <path style="fill:#4e4e4e;fill-opacity:1;stroke-width:0.3125;stroke-miterlimit:4;stroke-dasharray:none" d="m 21.794352,37.808079 v -0.484913 l 2.544596,0.0084 c 2.514721,0.0083 2.545608,0.0091 2.630881,0.07278 0.159587,0.119165 0.215148,0.223579 0.215148,0.404319 0,0.188076 -0.06127,0.296463 -0.234057,0.414062 l -0.103311,0.07031 h -2.526628 -2.526629 z"/>
    <path style="fill:#4e4e4e;fill-opacity:1;stroke-width:0.3125;stroke-miterlimit:4;stroke-dasharray:none" d="m 37.544352,37.808618 v -0.484375 h 1.984375 1.984375 v 0.484375 0.484375 h -1.984375 -1.984375 z"/>
    <path style="fill:#4e4e4e;fill-opacity:1;stroke-width:0.3125;stroke-miterlimit:4;stroke-dasharray:none" d="M 20.054686,43.779993 V 43.29508 l 2.544596,0.0084 c 2.514721,0.0083 2.545608,0.0091 2.630881,0.07278 0.159587,0.119165 0.215148,0.223579 0.215148,0.404319 0,0.188076 -0.06127,0.296463 -0.234057,0.414062 l -0.103311,0.07031 h -2.526628 -2.526629 z"/>
    <path style="fill:#4e4e4e;fill-opacity:1;stroke-width:0.3125;stroke-miterlimit:4;stroke-dasharray:none" d="M 39.578123,43.811265 V 43.32689 h 1.984375 1.984375 v 0.484375 0.484375 h -1.984375 -1.984375 z"/>
    <path style="fill:none;fill-rule:evenodd;stroke:#000000;stroke-width:1px;stroke-linecap:butt;stroke-linejoin:miter;stroke-opacity:1" d="m 23.909047,38.720934 c -1.325825,3.955378 -1.325825,3.955378 -1.325825,3.955378"/>
    <path style="fill:#4e4e4e;fill-opacity:1;fill-rule:evenodd;stroke:#000000;stroke-width:1px;stroke-linecap:butt;stroke-linejoin:miter;stroke-opacity:1" d="m 22.804193,38.610448 c 1.789864,0.198874 2.342291,0 2.342291,0 l -2.519068,1.370019 2.077126,0.53033 -3.027301,1.546797 2.717942,0.552427 -3.093592,0.552427"/>
    <path style="fill:#4e4e4e;fill-opacity:1;fill-rule:evenodd;stroke:#000000;stroke-width:0.22097085;stroke-miterlimit:4;stroke-dasharray:none;stroke-opacity:1" d="m 29.799389,40.382101 c -0.309455,-0.04075 -0.572835,-0.06189 -0.780375,-0.06264 -0.119294,-0.000433 -0.236133,-0.01108 -0.259641,-0.02366 -0.05985,-0.03203 -0.05322,-0.101826 0.01385,-0.145772 0.04967,-0.03254 0.101744,-0.03533 0.425369,-0.02277 0.202826,0.0079 0.408549,0.02676 0.457163,0.04197 0.06326,0.01979 0.277929,0.02707 0.755116,0.02558 0.659447,-0.0021 0.666864,-0.0016 0.679184,0.04432 0.03738,0.139224 0.04029,0.137677 -0.288745,0.153457 -0.383434,0.01839 -0.8171,0.01385 -1.001924,-0.01048 z"/>
    <path style="fill:#4e4e4e;fill-opacity:1;fill-rule:evenodd;stroke:#000000;stroke-width:0.22097085;stroke-miterlimit:4;stroke-dasharray:none;stroke-opacity:1" d="m 29.677855,40.471518 c -0.07292,-0.01 -0.311567,-0.02847 -0.530325,-0.0411 -0.459986,-0.02656 -0.503534,-0.0428 -0.514797,-0.191993 -0.008,-0.105827 0.05721,-0.178454 0.186724,-0.207993 0.08796,-0.02006 0.634748,0.0058 0.935738,0.04418 0.09115,0.01163 0.426195,0.02159 0.744544,0.02213 0.568421,0.000953 0.579813,0.0019 0.634282,0.05069 0.03051,0.02735 0.06162,0.085 0.06915,0.128129 0.01863,0.106737 -0.03789,0.174005 -0.167144,0.198944 -0.12344,0.02382 -1.179205,0.02151 -1.358169,-0.003 z"/>
    <path style="fill:#4e4e4e;fill-opacity:1;fill-rule:evenodd;stroke:#000000;stroke-width:0.22097085;stroke-miterlimit:4;stroke-dasharray:none;stroke-opacity:1" d="m 29.467933,40.559187 c -0.115457,-0.0102 -0.326695,-0.02822 -0.469418,-0.04004 -0.375627,-0.0311 -0.45866,-0.08379 -0.45866,-0.291001 0,-0.213896 0.139481,-0.307861 0.454443,-0.306149 0.108582,0.00059 0.296858,0.01067 0.418392,0.0224 0.121534,0.01173 0.550994,0.0296 0.954356,0.0397 0.807176,0.02022 0.8033,0.0195 0.891723,0.164518 0.09798,0.160693 0.02334,0.363776 -0.151548,0.41235 -0.09683,0.0269 -1.329977,0.02555 -1.639288,-0.0018 z m 1.615712,-0.212174 c 0.01931,-0.01933 0.02055,-0.0411 0.0044,-0.07734 -0.02233,-0.05018 -0.02604,-0.05057 -0.71633,-0.07515 -0.381636,-0.01359 -0.873506,-0.0374 -1.093045,-0.05289 -0.338754,-0.02392 -0.40894,-0.02349 -0.463769,0.0028 -0.06713,0.03217 -0.09584,0.09717 -0.05913,0.13387 0.01166,0.01166 0.218928,0.03556 0.460587,0.0531 0.241658,0.01754 0.459266,0.03563 0.483573,0.04018 0.02431,0.0046 0.339536,0.0069 0.700509,0.0053 0.482823,-0.0022 0.663417,-0.01008 0.683184,-0.02987 z"/>
    <path style="fill:#4e4e4e;fill-opacity:1;fill-rule:evenodd;stroke:#000000;stroke-width:0.22097085;stroke-miterlimit:4;stroke-dasharray:none;stroke-opacity:1" d="m 29.169622,40.63767 c -0.37822,-0.03566 -0.439008,-0.04634 -0.556382,-0.09784 -0.261346,-0.114652 -0.22457,-0.558032 0.05558,-0.670126 0.119914,-0.04798 0.302257,-0.05127 1.020081,-0.01841 0.346372,0.01586 0.808753,0.03669 1.027514,0.0463 0.468617,0.02058 0.533018,0.03962 0.613996,0.181523 0.03011,0.05276 0.06117,0.123639 0.06903,0.157516 0.03276,0.141214 -0.07953,0.345601 -0.222769,0.405449 -0.09703,0.04054 -1.564397,0.03732 -2.007052,-0.0044 z"/>
    <path style="fill:#4e4e4e;fill-opacity:1;fill-rule:evenodd;stroke:#000000;stroke-width:0.22097085;stroke-miterlimit:4;stroke-dasharray:none;stroke-opacity:1" d="m 29.688904,40.758833 c -0.793554,-0.02169 -1.111494,-0.07408 -1.232743,-0.203146 -0.170794,-0.181802 -0.148541,-0.523287 0.04519,-0.693381 0.131389,-0.115361 0.204498,-0.129589 0.646179,-0.125755 0.539815,0.0047 1.870837,0.07039 2.003872,0.09893 0.135875,0.02914 0.220099,0.09968 0.292507,0.244984 0.103018,0.206731 0.06128,0.414974 -0.115044,0.573943 -0.05173,0.04664 -0.121861,0.0864 -0.163658,0.09277 -0.133614,0.02039 -0.927434,0.02666 -1.476298,0.01166 z m 1.457744,-0.225363 c 0.06999,-0.03542 0.155343,-0.161782 0.155343,-0.229995 0,-0.06933 -0.07812,-0.220921 -0.127131,-0.246686 -0.06293,-0.03308 -0.221739,-0.04635 -0.974762,-0.08146 -1.035788,-0.04828 -1.410158,-0.04886 -1.499831,-0.0023 -0.135971,0.07061 -0.198042,0.252956 -0.130542,0.383486 0.05784,0.111844 0.183937,0.142797 0.776674,0.190645 0.04861,0.0039 0.461277,0.0087 0.917029,0.01052 0.624695,0.0026 0.842074,-0.0034 0.88322,-0.02423 z"/>
    <path style="fill:#4e4e4e;fill-opacity:1;fill-rule:evenodd;stroke:#000000;stroke-width:0.22097085;stroke-miterlimit:4;stroke-dasharray:none;stroke-opacity:1" d="m 29.341574,40.848141 c -0.690273,-0.03827 -0.915112,-0.112264 -1.032357,-0.339756 -0.116219,-0.2255 -0.08308,-0.489302 0.08441,-0.671888 0.13869,-0.151195 0.240297,-0.187276 0.559136,-0.198553 0.494203,-0.01748 2.08959,0.06515 2.274686,0.117815 0.282189,0.08029 0.450347,0.479111 0.322814,0.765627 -0.04599,0.103321 -0.211442,0.26915 -0.309205,0.309907 -0.07595,0.03166 -1.417582,0.04356 -1.89948,0.01685 z m 1.811762,-0.466779 c 0.04653,-0.06233 0.04254,-0.128562 -0.01224,-0.203463 -0.02356,-0.03221 -0.07375,-0.04524 -0.227454,-0.05902 -0.31449,-0.02819 -1.309795,-0.06983 -1.75144,-0.07327 l -0.40517,-0.0032 -0.05335,0.062 c -0.03439,0.03997 -0.05334,0.08944 -0.05334,0.139234 0,0.06761 0.0098,0.08133 0.07853,0.110048 0.168338,0.07034 0.543405,0.09313 1.476935,0.08974 l 0.903602,-0.0033 z"/>
    <path style="fill:#4e4e4e;fill-opacity:1;fill-rule:evenodd;stroke:#4e4e4e;stroke-width:0.22097085;stroke-miterlimit:4;stroke-dasharray:none;stroke-opacity:1" d="m 29.12672,40.93673 c -0.581709,-0.0541 -0.805721,-0.155062 -0.926633,-0.417641 -0.06785,-0.147357 -0.06619,-0.437543 0.0033,-0.578618 0.06662,-0.135216 0.212762,-0.281331 0.336079,-0.336021 0.130528,-0.05789 0.47552,-0.07493 1.130835,-0.05586 0.904548,0.02632 1.534167,0.0798 1.663793,0.141309 0.177623,0.08429 0.33083,0.317221 0.356682,0.542296 0.02147,0.186949 -0.03193,0.342367 -0.169289,0.492658 -0.21815,0.23869 -0.133197,0.223093 -1.235981,0.226917 -0.528673,0.0018 -1.050135,-0.0049 -1.158805,-0.01504 z m 1.948567,-0.194892 c 0.146882,-0.01473 0.167407,-0.02322 0.250414,-0.103595 0.120842,-0.117012 0.15938,-0.197006 0.15938,-0.330829 0,-0.21912 -0.153969,-0.434091 -0.330458,-0.461384 -0.331694,-0.05129 -1.524876,-0.108394 -2.051292,-0.09816 -0.46993,0.0091 -0.496519,0.01625 -0.635481,0.170063 -0.1605,0.177654 -0.166818,0.435953 -0.0149,0.608982 0.159269,0.181397 0.496237,0.226244 1.722086,0.22919 0.407138,0.000979 0.81225,-0.0054 0.900247,-0.01426 z"/>
    <path style="fill:#4e4e4e;fill-opacity:1;fill-rule:evenodd;stroke:#4e4e4e;stroke-width:0.22097085;stroke-miterlimit:4;stroke-dasharray:none;stroke-opacity:1" d="m 29.017469,40.515386 c -0.208458,-0.02199 -0.36955,-0.07206 -0.423455,-0.131621 -0.06542,-0.07228 -0.05247,-0.224655 0.02855,-0.336151 l 0.06798,-0.09354 0.615188,0.0031 c 0.646497,0.0032 1.496282,0.04024 1.719041,0.07491 0.167307,0.02604 0.233342,0.08665 0.249374,0.228879 0.0096,0.08503 0.0017,0.116894 -0.04693,0.190427 l -0.05844,0.08831 -0.988531,-0.0029 c -0.543692,-0.0016 -1.066943,-0.01121 -1.162781,-0.02132 z m 2.05613,-0.209249 c 0.0073,-0.01905 0.0045,-0.04332 -0.0062,-0.05394 -0.02973,-0.02943 -0.541488,-0.06208 -1.434453,-0.09153 -0.733158,-0.02418 -0.810673,-0.02338 -0.842783,0.0087 -0.06191,0.06191 -0.02022,0.09898 0.140373,0.12476 0.218826,0.03514 0.304227,0.03801 1.261788,0.04252 0.770159,0.0036 0.869502,0.000183 0.881293,-0.03054 z"/>
    <path style="fill:#4e4e4e;fill-opacity:1;fill-rule:evenodd;stroke:#4e4e4e;stroke-width:0.22097085;stroke-miterlimit:4;stroke-dasharray:none;stroke-opacity:1" d="m 33.948117,39.042642 c 0.136726,-0.0039 0.360459,-0.0039 0.497184,0 0.136726,0.0039 0.02486,0.007 -0.248592,0.007 -0.273451,0 -0.385318,-0.0032 -0.248592,-0.007 z"/>
    <path style="fill:#4e4e4e;fill-opacity:1;fill-rule:evenodd;stroke:#4e4e4e;stroke-width:0.22097085;stroke-miterlimit:4;stroke-dasharray:none;stroke-opacity:1" d="m 33.612715,39.002316 c -0.04801,-0.04801 -0.04344,-0.08925 0.01439,-0.129751 0.04118,-0.02884 0.135796,-0.0344 0.585572,-0.0344 0.509025,0 0.538749,0.0023 0.581163,0.0447 0.08531,0.08531 -0.01161,0.166339 -0.17975,0.150277 -0.05814,-0.0056 -0.07645,-0.01826 -0.08193,-0.05687 -0.007,-0.04902 -0.01167,-0.04972 -0.336981,-0.04972 H 33.86526 v 0.05524 c 0,0.05145 -0.0075,0.05524 -0.108907,0.05524 -0.06954,0 -0.121458,-0.01255 -0.143631,-0.03472 z"/>
    <path style="fill:#4e4e4e;fill-opacity:1;fill-rule:evenodd;stroke:#4e4e4e;stroke-width:0.22097085;stroke-miterlimit:4;stroke-dasharray:none;stroke-opacity:1" d="m 21.391567,43.605613 c -0.0292,-0.08452 -0.162592,-0.912251 -0.148957,-0.924323 0.0089,-0.0079 0.09203,-0.02619 0.184634,-0.0406 0.219587,-0.03418 0.305866,-0.05885 0.262515,-0.07507 -0.01823,-0.0068 -0.355718,-0.07788 -0.749972,-0.157915 -0.394255,-0.08003 -0.719004,-0.147767 -0.721665,-0.150524 -0.0027,-0.0028 0.676489,-0.352742 1.509221,-0.777746 0.832732,-0.425004 1.528188,-0.783066 1.545457,-0.795693 0.02325,-0.017 -0.226957,-0.08889 -0.963619,-0.276878 -0.54726,-0.139655 -0.994754,-0.25889 -0.994429,-0.264967 0.000324,-0.0061 0.403031,-0.228964 0.894904,-0.495305 0.491874,-0.266342 0.894316,-0.491277 0.894316,-0.499856 0,-0.0086 -0.07917,-0.0225 -0.175935,-0.03095 -0.175747,-0.01533 -0.175925,-0.01541 -0.165783,-0.07467 0.0056,-0.03263 0.03083,-0.248191 0.05611,-0.479032 0.02528,-0.230841 0.0494,-0.42315 0.0536,-0.427354 0.0042,-0.0042 0.207662,0.0093 0.45213,0.02995 0.334216,0.02826 0.579957,0.03467 0.990543,0.02583 0.30033,-0.0065 0.571521,-0.01832 0.602647,-0.02633 0.0551,-0.01419 0.06186,-0.0028 0.257009,0.433881 l 0.200417,0.448457 -0.620015,0.337768 c -0.341008,0.185772 -0.628511,0.337768 -0.638895,0.337768 -0.02482,0 -0.06116,0.09564 -0.04277,0.112572 0.0078,0.0072 0.459244,0.126091 1.003109,0.26415 0.543865,0.138058 0.988539,0.256444 0.988164,0.263078 -0.000373,0.0066 -0.576458,0.305211 -1.280186,0.663501 l -1.279506,0.651437 -0.02669,0.09986 c -0.01468,0.05493 -0.02776,0.108003 -0.02907,0.117952 -0.0013,0.0099 0.211414,0.06188 0.472712,0.115408 0.261298,0.05353 0.494975,0.102125 0.519282,0.107997 0.04281,0.01034 0.04395,0.02574 0.03654,0.492261 -0.0042,0.264872 -0.0092,0.483145 -0.01105,0.485052 -0.0069,0.0071 -2.998297,0.537912 -3.031141,0.537912 -0.01874,0 -0.03838,-0.01243 -0.04362,-0.02762 z"/>
    <path style="fill:#4e4e4e;fill-opacity:1;fill-rule:evenodd;stroke:#4e4e4e;stroke-width:0.625;stroke-miterlimit:4;stroke-dasharray:none;stroke-opacity:1" d="m 40.209442,40.844471 -0.726606,-2.483667 0.468631,-0.01839 c 0.257746,-0.01012 0.47901,-0.008 0.491696,0.0047 0.02483,0.02483 1.461634,4.887663 1.461634,4.94688 0,0.01957 -0.217969,0.03527 -0.484375,0.03488 l -0.484375,-0.000708 z"/>
    <path style="fill:#4e4e4e;fill-opacity:1;fill-rule:evenodd;stroke:#4e4e4e;stroke-width:0.88388342;stroke-miterlimit:4;stroke-dasharray:none;stroke-opacity:1" d="M 49.425552,68.062527 C 49.360222,68.02015 47.7478,62.672029 45.842392,56.177814 43.936984,49.683599 42.358023,44.35016 42.333589,44.325726 c -0.09008,-0.09008 -20.610445,-0.06917 -20.665776,0.02106 -0.02981,0.0486 -1.60541,5.381446 -3.50134,11.850759 l -3.447146,11.76239 -3.383628,0.001 C 8.6664434,67.961757 7.9429005,67.938074 7.9086351,67.84878 7.8847455,67.786525 8.982345,63.91843 10.347745,59.253014 12.414533,52.191037 23.759162,13.608972 25.163381,8.8663694 L 25.584476,7.444161 29.34429,7.385977 c 2.067896,-0.032001 5.231479,-0.057908 7.030182,-0.057572 l 3.270368,0.0006117 3.073471,11.2908873 c 13.432446,49.346255 13.433248,49.349218 13.364473,49.418105 -0.08762,0.08776 -6.52319,0.111465 -6.657232,0.02452 z M 20.685541,42.064187 c 0.07292,-0.04713 0.09281,-0.08568 0.04419,-0.08568 -0.04861,0 -0.148051,0.03856 -0.220971,0.08568 -0.07292,0.04712 -0.09281,0.08568 -0.04419,0.08568 0.04861,0 0.14805,-0.03856 0.220971,-0.08568 z m 19.587998,-4.840879 c -0.0248,-0.08419 -1.502165,-5.124014 -3.283025,-11.199621 -1.780859,-6.075608 -3.258188,-11.079342 -3.282952,-11.119411 -0.02476,-0.04007 -0.170673,-0.06085 -0.324242,-0.04618 -0.264443,0.02526 -0.280669,0.0091 -0.30665,-0.304782 l -0.02743,-0.331457 h -1.057513 c -1.046683,0 -1.058372,0.0023 -1.141525,0.220971 -0.05662,0.148919 -0.151536,0.220971 -0.291095,0.220971 -0.198813,0 -0.338806,0.449063 -3.506305,11.247416 -1.814573,6.18608 -3.31774,11.297457 -3.340371,11.358617 -0.03288,0.08885 1.631419,0.110731 8.282532,0.108868 7.851609,-0.0022 8.32112,-0.01101 8.278578,-0.155394 z"/>
    <path style="fill:#ffffff;fill-opacity:1;fill-rule:evenodd;stroke:#4e4e4e;stroke-width:0.88388342;stroke-miterlimit:4;stroke-dasharray:none;stroke-opacity:1" d="m 48.936968,68.883026 c 0,-0.206368 -0.02468,-0.222573 -0.260163,-0.170852 -0.242645,0.05329 -0.266375,0.03442 -0.352429,-0.280239 -0.05075,-0.185559 -1.599602,-5.468324 -3.441904,-11.739477 l -3.349638,-11.402096 -9.551889,-0.02249 -9.551891,-0.02249 -0.16552,0.55282 c -0.09104,0.304052 -1.633973,5.555532 -3.428748,11.669957 l -3.263227,11.117134 -0.243662,-0.05352 c -0.216816,-0.04762 -0.243664,-0.0284 -0.243664,0.174475 v 0.227996 H 11.068434 7.0526355 l -0.027968,-0.243068 c -0.020461,-0.177824 -0.083918,-0.250986 -0.23641,-0.272567 -0.1745765,-0.0247 -0.2005953,-0.06779 -0.160145,-0.265165 0.026563,-0.129616 4.0878936,-13.987208 9.0251796,-30.794647 4.937285,-16.807439 8.976882,-30.5766711 8.976882,-30.5982936 0,-0.021623 0.119324,-0.00509 0.265165,0.036735 0.24905,0.071427 0.265165,0.061189 0.265165,-0.168455 V 6.3842798 l 5.369592,-0.058606 c 2.953275,-0.032233 6.294355,-0.058642 7.424621,-0.058686 l 2.055029,-0.0000797 v 0.258995 c 0,0.240452 0.0174,0.2540223 0.243068,0.1895402 l 0.243068,-0.069455 8.379529,30.7684765 c 4.608741,16.922663 8.401073,30.854709 8.427403,30.960102 0.03774,0.15106 0.004,0.197836 -0.159414,0.220971 -0.151272,0.02142 -0.214844,0.09503 -0.235254,0.272414 l -0.02797,0.243068 h -3.971605 -3.971605 z m 7.092125,-0.395084 C 56.482352,68.362063 56.579226,68.151218 56.446731,67.57896 56.178913,66.422224 54.352426,59.67822 45.174932,25.95967 42.33408,15.522244 40.009746,6.9607281 40.009746,6.9340791 c 0,-0.068147 -10.135108,-0.060549 -12.700525,0.00952 l -2.122548,0.057974 -2.852553,9.68684 C 10.736155,56.073364 7.5447485,67.013441 7.4588208,67.68064 c -0.045833,0.355877 -0.030305,0.393067 0.2305035,0.552097 0.263916,0.160924 0.4788835,0.170534 3.8214787,0.170846 l 3.541833,0.000331 1.222135,-4.17635 c 3.087801,-10.551802 5.681231,-19.341891 5.717272,-19.377931 0.07827,-0.07827 15.200807,-0.157922 17.5879,-0.09264 l 2.442819,0.06681 0.23976,0.89619 c 0.519963,1.943562 5.786099,19.735371 6.37403,21.534869 0.311667,0.953928 0.424309,1.17101 0.65397,1.260314 0.242019,0.09411 6.391124,0.06925 6.738571,-0.02724 z"/>
    <path style="fill:#ffffff;fill-opacity:1;fill-rule:evenodd;stroke:#4e4e4e;stroke-width:0.88388342;stroke-miterlimit:4;stroke-dasharray:none;stroke-opacity:1" d="m 25.816966,36.852446 -1.509052,-0.04736 2.104418,-7.159456 c 4.322232,-14.704706 4.229338,-14.407796 4.609701,-14.733576 0.247789,-0.212229 0.35548,-0.24127 0.900179,-0.242748 0.610832,-0.0017 0.620409,0.0019 0.751301,0.282436 0.08693,0.186293 0.224383,0.309729 0.399206,0.358508 l 0.266624,0.07439 2.599552,8.854064 c 1.429754,4.869735 2.844565,9.693107 3.144024,10.718606 l 0.544472,1.86454 -2.040629,0.0577 c -2.251444,0.06366 -9.40261,0.04719 -11.769796,-0.02711 z M 38.83017,36.120071 C 38.80204,36.01069 37.415228,31.276103 35.748365,25.598766 l -3.030658,-10.32243 -0.7513,0.02519 -0.751301,0.02519 -3.068861,10.429824 c -1.687874,5.736403 -3.070047,10.459655 -3.071495,10.496116 -0.0014,0.03646 3.104436,0.06629 6.901965,0.06629 h 6.9046 z"/>
    <rect style="fill:#ffffff;fill-opacity:0;fill-rule:evenodd;stroke:#ffffff;stroke-width:10;stroke-miterlimit:4;stroke-dasharray:none;stroke-opacity:1" width="53.474949" height="0.35355338" x="4.5961938" y="65.502602"/>
  </g>
</svg>
